<?xml version="1.0" encoding="UTF-8"?>
<svg width="1440px" height="1328px" viewBox="0 0 1440 1328" version="1.1" xmlns="http://www.w3.org/2000/svg" xmlns:xlink="http://www.w3.org/1999/xlink">
    <!-- Generator: Sketch 40.3 (33839) - http://www.bohemiancoding.com/sketch -->
    <title>layer7</title>
    <desc>Created with Sketch.</desc>
    <defs>
        <rect id="path-1" x="0" y="0.0488871606" width="1440" height="1327.95111"></rect>
    </defs>
    <g id="404" stroke="none" stroke-width="1" fill="none" fill-rule="evenodd">
        <g id="404-v3" transform="translate(0.000000, -73.000000)">
            <g id="parallax-bg" transform="translate(0.000000, 73.000000)">
                <g id="layer7">
                    <mask id="mask-2" fill="white">
                        <use xlink:href="#path-1"></use>
                    </mask>
                    <use id="Rectangle-3-Copy-4" fill-opacity="0.00999999978" fill="#FFFFFF" xlink:href="#path-1"></use>
                    <path d="M72.5432892,457.176986 L114.015422,520.215328 L121.626819,514.751095 L134.292632,534.797126 C134.292632,534.797126 143.455732,548.758944 152.272063,541.778035 C161.088394,534.797126 166.580649,524.667278 166.580649,524.667278 L177.288445,530.275123 L183.656379,544.335016 L189.06457,535.035311 L201.306555,554.843158 L213.401426,566.710353 L215.937391,544.394562 L238.449333,567.1587 L241.118401,551.410498 L248.249926,555.018294 L248.239418,528.488739 L255.76675,519.521791 L267.077013,523.437825 L272.397636,515.521692 L281.795417,528.541279 L281.164929,512.043497 L293.025118,526.239996 L305.30213,548.878036 L319.848901,580.440991 L324.013628,589.379917 L334.595326,588.549774 L340.535929,597.835468 L350.879443,605.667537 L377.661194,691.33341 L388.841857,698.713628 L396.793017,710.128973 L401.903477,703.158572 L410.639245,737.884478 L431.242208,767.195188 L436.401706,763.604906 L439.585673,783.864603 L453.253262,805.500867 L461.246455,829.771171 L470.941967,824.625685 L492.704329,863.97167 C492.704329,863.97167 519.556134,925.423283 584.261767,916.4108 C648.967401,907.398317 641.268436,908.34405 641.268436,908.34405 L647.152995,937.094325 L656.197003,929.15017 L663.626259,954.12452 L716.804461,973.939373 L773.051041,991.17973 L789.625883,978.167148 L788.890313,962.968873 L814.330524,953.395956 L806.239255,942.218796 L780.073982,935.381498 L793.030521,925.927673 L797.454449,916.715536 L814.239454,918.91524 L849.43122,896.333244 L932.715248,856.626479 C932.715248,856.626479 1028.77017,746.042299 1048.00007,700.878306 C1067.22997,655.714313 1100.63535,586.153917 1100.63535,586.153917 L1128.86372,546.222979 L1133.30516,527.486962 L1140.4507,534.054551 L1194.36447,388.860055 L1301.4641,291.017026 L1440,332.167983 L1478.06541,316.679383 L1519.29373,391.269922 L1514.03966,1403.25651 L-19.06669,1378.68847 L-49.2425702,371.258917 L72.5432892,457.176986 Z" id="Path-8" fill="#99E9E2" mask="url(#mask-2)"></path>
                </g>
            </g>
        </g>
    </g>
</svg>