<?xml version="1.0" encoding="UTF-8"?>
<svg width="1440px" height="1328px" viewBox="0 0 1440 1328" version="1.1" xmlns="http://www.w3.org/2000/svg" xmlns:xlink="http://www.w3.org/1999/xlink">
    <!-- Generator: Sketch 40.3 (33839) - http://www.bohemiancoding.com/sketch -->
    <title>layer11</title>
    <desc>Created with Sketch.</desc>
    <defs>
        <rect id="path-1" x="0" y="0.0488871606" width="1440" height="1327.95111"></rect>
    </defs>
    <g id="404" stroke="none" stroke-width="1" fill="none" fill-rule="evenodd">
        <g id="404-v3" transform="translate(0.000000, -73.000000)">
            <g id="parallax-bg" transform="translate(0.000000, 73.000000)">
                <g id="layer11">
                    <mask id="mask-2" fill="white">
                        <use xlink:href="#path-1"></use>
                    </mask>
                    <use id="Rectangle-3-Copy-10" fill-opacity="0.00999999978" fill="#FFFFFF" xlink:href="#path-1"></use>
                    <path d="M878.289233,449.394151 L736.50673,504.498899 L728.432975,502.257162 L718.096466,522.821596 L706.933317,516.495694 L699.931392,522.597422 L694.481169,535.729096 L678.655908,543.904431 L666.441944,539.87631 L653.905731,553.445823 L648.770753,573.453325 L638.059454,568.532012 L631.131086,604.746571 L614.832958,619.906317 L595.389393,643.766804 L582.632509,724.619949 L623.996057,810.919813 C623.996057,810.919813 530.991998,896.410551 525.636349,891.538276 C520.280699,886.666001 392.757394,780.561792 392.757394,780.561792 L156.944187,379.364445 L-16.9690607,194.763648 L-16.9690607,383.830406 L-8.97236492,1406.48626 L1498.67275,1421.32726 L1529.86792,364.632031 L1540.81443,32.4003914 L1498.67275,408.868469 L1440,421.921099 C1440,421.921099 1190.75907,406.655922 1187.93748,408.868469 C1124.02174,458.988025 878.289233,449.394151 878.289233,449.394151 Z" id="Path-11" fill="#E5F9F7" mask="url(#mask-2)"></path>
                </g>
            </g>
        </g>
    </g>
</svg>