<?xml version="1.0" encoding="UTF-8"?>
<svg width="1440px" height="1328px" viewBox="0 0 1440 1328" version="1.1" xmlns="http://www.w3.org/2000/svg" xmlns:xlink="http://www.w3.org/1999/xlink">
    <!-- Generator: Sketch 40.3 (33839) - http://www.bohemiancoding.com/sketch -->
    <title>layer6</title>
    <desc>Created with Sketch.</desc>
    <defs>
        <rect id="path-1" x="0" y="0.0488871606" width="1440" height="1327.95111"></rect>
    </defs>
    <g id="404" stroke="none" stroke-width="1" fill="none" fill-rule="evenodd">
        <g id="404-v3" transform="translate(0.000000, -73.000000)">
            <g id="parallax-bg" transform="translate(0.000000, 73.000000)">
                <g id="layer6">
                    <mask id="mask-2" fill="white">
                        <use xlink:href="#path-1"></use>
                    </mask>
                    <use id="Rectangle-3-Copy-5" fill-opacity="0.00999999978" fill="#FFFFFF" xlink:href="#path-1"></use>
                    <path d="M15.6206857,390.198091 L62.9388477,527.623568 C62.9388477,527.623568 95.4370272,589.029646 103.88207,596.196198 C112.327114,603.362751 109.598499,592.619927 109.598499,592.619927 L153.256325,671.893348 L162.100678,682.765772 L182.283315,722.805295 L197.432553,728.115409 L205.359195,743.429274 L225.286134,765.030511 L234.105968,776.372298 L242.547508,794.358734 L244.333892,779.6018 L251.798175,775.682264 L254.870055,790.659868 L271.749634,811.581578 L293.266805,858.444387 L337.239875,902.238819 L384.246296,959.655305 L415.907327,982.521022 L465.70541,1012.02788 L495.415429,1016.98072 L543.181939,1062.52651 L614.192458,1099.61324 L688.586598,1150.273 L735.740132,1133.65612 L785.832444,1125.01142 L829.514789,1050.61728 L935.40183,1042.70815 L998.755416,991.726154 L1059.11418,953.770746 L1102.30615,940.330833 L1182.58835,869.243254 L1238.61076,751.313883 L1286.41229,681.897099 L1344.59938,555.98154 L1358.12971,219.103807 L1395.97714,290.286096 L1395.97714,250.393646 L1471.05785,431.495634 L1471.05785,1407.79252 L-21.9879534,1414.89602 L-31.0424688,381.774064 L15.6206857,390.198091 Z" id="Path-7" fill="#7FE3DB" mask="url(#mask-2)"></path>
                </g>
            </g>
        </g>
    </g>
</svg>