<?xml version="1.0" encoding="UTF-8"?>
<svg width="1440px" height="1328px" viewBox="0 0 1440 1328" version="1.1" xmlns="http://www.w3.org/2000/svg" xmlns:xlink="http://www.w3.org/1999/xlink">
    <!-- Generator: Sketch 40.3 (33839) - http://www.bohemiancoding.com/sketch -->
    <title>layer4</title>
    <desc>Created with Sketch.</desc>
    <defs>
        <rect id="path-1" x="0" y="0.0488871606" width="1440" height="1327.95111"></rect>
    </defs>
    <g id="404" stroke="none" stroke-width="1" fill="none" fill-rule="evenodd">
        <g id="404-v3" transform="translate(0.000000, -73.000000)">
            <g id="parallax-bg" transform="translate(0.000000, 73.000000)">
                <g id="layer4">
                    <mask id="mask-2" fill="white">
                        <use xlink:href="#path-1"></use>
                    </mask>
                    <use id="Rectangle-3-Copy-7" fill-opacity="0.00999999978" fill="#FFFFFF" xlink:href="#path-1"></use>
                    <path d="M1542.80521,778.827701 L1520.73812,751.520543 L1505.82356,787.479404 L1503.10896,761.135493 L1496.08952,795.19238 L1479.4201,807.521933 L1475.29741,796.267713 L1442.23179,858.549469 L1438.64501,851.722679 L1429.29977,882.522043 L1424.22083,878.007045 L1414.98418,893.541581 L1399.919,902.109219 L1391.2708,896.235168 L1386.12181,910.284553 L1374.68545,905.090028 L1362.47149,932.929598 L1349.92827,931.973357 L1348.04031,922.509025 L1338.33079,941.388652 L1252.29713,969.140655 L1246.30398,975.221366 L1243.4843,958.762113 L1236.49639,971.669614 L1228.98306,966.503111 L1219.45218,976.794084 L1201.04542,996.468828 L1194.67398,989.792656 L1183.44428,1016.93869 L1172.06747,993.225315 L1162.25286,1009.83869 L1155.48912,996.409282 L1149.05464,1015.54811 L1138.6831,1023.01239 L1084.64673,1076.69148 L1079.94259,1065.24462 L1074.21565,1085.40974 L1066.0158,1107.8166 L1051.76676,1113.66613 L1047.14668,1097.38902 L1036.28126,1113.81325 L1026.82743,1099.99154 L1018.6486,1131.78567 L1013.98649,1123.11295 L1005.38382,1139.08182 L923.651494,1202.79969 L918.604083,1193.65411 L914.099593,1205.57735 L859.712954,1221.61277 L852.343244,1207.26916 L830.671954,1281.81742 L825.004563,1267.54386 L813.494645,1288.02422 L804.821925,1280.48989 L800.664204,1292.9 L789.851326,1308.92142 L785.227744,1293.58653 L746.004353,1335.04115 L1571.03008,1356.85606 L1542.80521,778.827701 Z" id="Path-5" fill="#66DDD4" mask="url(#mask-2)"></path>
                </g>
            </g>
        </g>
    </g>
</svg>