<?xml version="1.0" encoding="UTF-8"?>
<svg width="1440px" height="1328px" viewBox="0 0 1440 1328" version="1.1" xmlns="http://www.w3.org/2000/svg" xmlns:xlink="http://www.w3.org/1999/xlink">
    <!-- Generator: Sketch 40.3 (33839) - http://www.bohemiancoding.com/sketch -->
    <title>layer1</title>
    <desc>Created with Sketch.</desc>
    <defs>
        <rect id="path-1" x="0" y="0.0488871606" width="1440" height="1327.95111"></rect>
    </defs>
    <g id="404" stroke="none" stroke-width="1" fill="none" fill-rule="evenodd">
        <g id="404-v3" transform="translate(0.000000, -73.000000)">
            <g id="parallax-bg" transform="translate(0.000000, 73.000000)">
                <g id="layer1">
                    <mask id="mask-2" fill="white">
                        <use xlink:href="#path-1"></use>
                    </mask>
                    <use id="Rectangle-3-Copy-11" fill-opacity="0.00999999978" fill="#FFFFFF" xlink:href="#path-1"></use>
                    <path d="M392.59794,881.149265 L387.393555,885.46735 L386.167017,885.971407 L381.983346,881.338286 L380.588789,882.022963 L376.526933,880.346975 C378.950605,883.959381 383.050266,883.829166 383.760146,885.971407 L379.744495,885.971407 C376.77056,885.971407 377.719867,887.214747 378.135714,889.184768 L387.040715,892.22591 C394.983808,888.159853 402.053203,887.118136 409.467037,883.560336 C411.344648,883.997185 411.840304,884.362626 414.284979,884.362626 L418.30063,884.362626 C421.913036,884.362626 423.643631,885.765584 423.925063,889.184768 C420.686498,889.936653 418.342635,890.843955 417.49834,894.00271 L419.909411,894.00271 C421.841628,894.00271 422.270076,892.700564 423.925063,891.591639 C425.806874,892.028488 426.298329,892.393929 428.747205,892.393929 L436.778508,892.393929 C436.039225,890.167679 437.425381,890.629731 435.169727,891.591639 L433.724764,889.827441 C432.292403,890.596127 432.414217,890.789349 430.351785,890.789349 L426.336134,890.789349 C428.52458,887.798613 430.83904,888.563099 433.174503,886.383053 C435.871206,883.866971 434.417842,883.06468 439.189579,881.951555 L441.886282,886.580476 L444.007521,886.773697 L444.007521,889.987059 C446.019547,891.049778 448.829663,891.402618 448.829663,894.00271 C448.829663,895.048628 444.990431,900.063992 443.8227,901.042702 C441.046188,903.373964 440.113683,903.008523 436.967529,906.238686 C435.031111,908.22551 428.175941,919.709601 426.336134,919.709601 C422.425494,919.709601 421.026737,916.227409 420.711701,912.480588 L415.931564,911.480876 L412.054528,907.477826 C412.970231,905.591813 417.225309,902.034013 419.909411,902.034013 L423.925063,902.034013 C426.373938,902.034013 426.865393,902.403655 428.747205,902.840504 L430.511403,901.391341 C434.262425,902.059216 431.99417,902.743893 432.762856,900.429433 L429.511691,899.765758 C427.432457,900.677261 430.208969,900.429433 427.138424,900.429433 C425.437233,900.429433 426.079905,900.143801 423.925063,899.627143 C421.992845,900.555447 422.883345,900.429433 419.909411,900.429433 L418.30063,900.429433 C415.036863,900.429433 412.281353,906.049665 408.660546,906.049665 C405.636206,906.049665 407.144176,905.524606 403.842604,905.247375 L403.842604,906.856156 C405.774822,907.372814 409.698063,909.536057 410.269327,911.674097 L412.6972,910.918012 C411.676485,913.639918 408.463124,915.987982 405.447185,916.49624 L399.020462,917.29853 L399.89416,918.865306 C396.134738,919.890221 397.798125,921.314181 395.00481,921.314181 L391.791449,921.314181 L391.203383,917.260726 L392.711353,914.98407 L387.775798,914.887459 C387.309545,914.887459 382.894849,916.94149 382.151365,917.29853 C379.316046,914.837053 377.476239,916.025787 376.526933,912.480588 L374.10326,913.240874 C372.666699,912.312569 372.704503,911.674097 370.906701,911.674097 L362.068907,911.674097 C360.266904,911.674097 360.304709,911.039826 358.855546,910.069517 L358.855546,911.674097 L356.427673,910.918012 L353.323524,913.417293 C352.218799,911.896722 346.964008,908.464937 345.19561,908.464937 L341.179958,908.464937 C337.307123,908.464937 334.597818,905.482601 332.388369,903.60079 C330.838395,902.277641 330.590567,901.496353 328.439925,900.320221 C326.419498,899.215496 325.928043,899.459124 325.113151,897.216072 L331.560876,896.564998 L334.757436,897.216072 L334.757436,895.611491 C334.009752,895.111635 332.825219,894.00271 332.342164,894.00271 C330.817393,894.00271 331.800303,895.594689 329.133003,895.611491 L316.279558,895.901324 C313.687867,895.624093 315.657888,894.910012 312.263906,894.00271 L312.263906,891.591639 L309.836033,892.351925 L306.660476,890.747344 C305.366731,891.398417 305.484344,891.591639 303.426113,891.591639 L301.015042,891.591639 C301.422487,887.86162 304.938283,886.059617 309.046345,885.971407 L311.280996,884.081195 L311.457416,882.753845 L309.046345,882.753845 L309.046345,884.362626 C305.505346,884.282817 302.623822,884.48864 302.623822,881.951555 L302.623822,879.540484 L305.664964,877.700677 C305.958997,872.458488 307.441764,875.428222 307.441764,872.311471 L307.441764,867.493529 L305.832983,867.493529 L305.832983,872.311471 C305.832983,874.688938 301.015042,878.771798 301.015042,881.149265 L301.015042,884.362626 C298.293135,885.803388 294.172472,889.184768 291.374958,889.184768 L288.963886,889.184768 C288.703457,886.042815 289.451141,886.744294 286.557016,885.971407 L294.042257,879.036427 L292.803118,873.945455 L290.354243,875.184594 L286.59062,874.541922 L286.557016,876.331323 L283.373058,875.428222 L284.242555,868.312621 L285.754726,868.29582 L285.754726,866.687039 L283.343654,866.687039 L282.898404,864.960645 L283.297449,862.654585 L281.734874,861.869097 L279.760652,870.039016 L280.302512,873.071757 L278.521512,873.117962 L278.521512,874.722542 L280.949385,873.962257 C282.037308,875.575238 283.343654,876.007887 283.343654,877.935904 L283.343654,880.346975 C283.343654,882.514418 283.725897,882.560624 284.145945,884.362626 L281.734874,884.362626 C275.719797,884.362626 274.938509,878.355951 269.683718,877.133613 L273.300325,866.52322 L275.308151,866.687039 L275.308151,859.458026 L277.273972,855.614594 L275.308151,855.442374 L270.191976,863.259453 L266.470357,863.477878 L266.470357,865.082458 L262.454705,865.082458 L261.484396,860.865184 L261.509599,864.317972 L256.97729,867.690952 L254.095766,862.860408 C250.327942,863.76351 253.049848,863.650097 251.205841,867.493529 C254.318391,868.984697 255.003068,867.67835 256.027983,871.509181 C251.298251,871.904025 254.351994,873.117962 251.205841,873.117962 L248.79897,873.117962 C247.963076,871.538584 247.190189,870.748895 247.190189,868.29582 C247.190189,866.649234 248.845175,866.821454 250.407751,866.687039 L250.407751,865.082458 C246.077064,864.985847 246.295488,864.725418 244.783318,861.869097 L242.355445,862.629382 L244.094441,864.985847 L239.570532,862.394156 L238.352395,861.869097 L238.352395,863.477878 L246.152672,867.921978 L246.387899,869.9004 C246.387899,871.567988 244.039835,873.916052 243.174537,873.916052 C241.637165,873.916052 242.628476,872.311471 239.961176,872.311471 C234.168725,872.311471 233.534453,869.135914 233.534453,863.477878 L233.534453,862.671387 C233.534453,860.73917 234.8366,860.310722 235.945525,858.655736 L232.039085,860.47454 L231.929873,864.280168 C231.929873,868.052192 229.745627,865.695727 227.107731,865.082458 L228.031835,869.875197 L233.282425,873.449799 L233.534453,874.722542 L228.624101,876.079295 L223.932174,875.331611 L223.134084,873.10116 L224.07499,869.131714 C222.634228,870.022214 222.289789,869.245126 222.289789,871.509181 L222.289789,872.311471 C222.289789,873.764835 221.94115,876.331323 220.681008,876.331323 C217.921298,876.331323 220.458383,870.152428 220.681008,867.493529 L223.495325,865.485704 L219.076428,863.477878 L219.076428,868.29582 L216.526741,871.383167 L217.644067,874.676337 L212.645505,874.722542 C208.176202,874.722542 206.878256,871.152141 203.811911,869.10231 L206.542218,862.810003 C202.480361,863.6711 204.656206,863.246852 203.005421,866.687039 L199.019172,866.271192 C196.494688,863.276255 192.264813,863.116637 191.760756,857.046955 L190.156176,857.046955 C190.156176,862.952819 192.176603,862.507569 194.974117,866.687039 L198.187479,866.687039 L202.681984,870.988322 L199.79626,871.509181 C197.994257,871.509181 198.032061,872.147653 196.582898,873.117962 L197.414592,869.106511 L194.974117,869.10231 L194.314643,872.349275 L195.839415,874.688938 L197.385189,874.722542 C200.174302,874.722542 198.611726,873.117962 201.40084,873.117962 C202.656781,873.117962 206.567421,876.289318 207.827563,877.133613 C210.419254,876.528745 213.447795,874.861158 211.843214,878.738194 L214.47271,880.002536 L216.682158,879.586689 L218.316142,882.732843 L215.056576,882.753845 L215.959677,885.937803 L211.885219,885.001098 L213.569608,887.479377 C217.84989,887.672598 219.114232,889.184768 223.894369,889.184768 C228.208255,889.184768 227.615988,887.575988 231.123382,887.575988 C235.748102,887.575988 232.963189,896.409581 227.107731,896.409581 C224.679858,896.409581 224.885681,895.468675 224.69666,893.20042 C221.395088,892.923189 222.903058,892.393929 219.878718,892.393929 C216.95939,892.393929 217.060201,891.440422 214.254285,890.789349 C212.469085,895.208246 213.628415,889.579613 211.843214,894.00271 L219.080628,893.931302 L219.076428,898.820652 C216.270512,899.475926 216.371323,900.429433 213.451995,900.429433 L211.843214,900.429433 C209.398539,900.429433 208.907084,900.794874 207.025273,901.231723 C204.811624,899.748956 203.97573,899.887572 202.20313,898.018362 L201.447045,900.446235 L196.574497,901.193919 C195.53278,899.114685 195.776408,901.895398 195.776408,898.820652 C195.776408,897.741131 198.737741,895.993734 199.79626,895.611491 L199.79626,894.00271 L197.385189,894.00271 L197.385189,892.393929 L195.032924,893.347437 L194.218032,890.772547 C195.347959,890.222285 198.872156,889.184768 200.59855,889.184768 C202.400553,889.184768 202.362748,888.546297 203.811911,887.575988 L207.827563,887.77761 L211.040924,887.575988 L211.040924,885.971407 L208.629853,885.971407 L203.807711,886.076419 C202.362748,886.941716 202.400553,887.575988 200.59855,887.575988 L194.974117,887.575988 L194.974117,889.184768 C193.789584,888.865533 192.567247,889.041952 192.567247,887.575988 C192.567247,885.878997 192.852879,886.517469 193.369537,884.362626 L190.202381,885.341336 L189.059852,881.733131 L190.080567,890.003861 L187.400666,893.742281 L192.264813,891.104384 C193.550157,895.283854 194.974117,893.620467 194.974117,896.409581 C194.974117,897.888147 193.369537,897.350487 193.369537,898.820652 C193.369537,900.521843 193.655169,899.883372 194.171827,902.034013 C192.193405,900.925089 194.37765,901.231723 192.567247,901.231723 C192.458034,901.231723 190.975268,902.021412 190.958466,902.034013 C190.034362,900.778072 190.811449,900.429433 188.547395,900.429433 L184.531743,900.429433 L187.047826,894.053116 C182.561722,895.590489 188.165152,895.036026 182.927163,895.611491 L181.440196,900.475638 L179.709601,900.429433 C177.264926,900.429433 176.773471,900.794874 174.891659,901.231723 L170.871807,900.429433 L170.871807,898.820652 L166.09587,896.346574 L166.058066,894.805 C166.058066,890.150877 171.837916,894.242137 172.480588,888.378278 C167.847467,889.617417 168.998397,892.393929 159.627143,892.393929 C159.383515,895.351062 159.370914,895.363663 156.413781,895.611491 C156.535595,890.134075 158.022562,893.099609 158.022562,889.987059 L158.022562,887.575988 C158.022562,884.782673 159.627143,886.34945 159.627143,883.560336 L159.627143,880.346975 L158.022562,880.346975 C157.91335,885.160716 156.413781,883.854369 156.413781,887.575988 C156.413781,890.029063 154.901611,894.00271 152.39813,894.00271 C151.301807,894.00271 140.582201,886.992122 137.940104,886.773697 C139.338861,892.011686 148.138851,891.032976 149.987059,895.611491 L153.20042,895.611491 L153.20042,899.627143 C153.20042,901.794586 152.818177,901.840792 152.39813,903.642794 L145.967207,901.235924 L145.971407,905.247375 L158.022562,905.247375 C158.430008,906.780547 160.660459,909.267227 162.038214,909.267227 C163.735205,909.267227 163.096733,908.977394 165.251575,908.464937 C164.558497,910.384552 163.462174,911.367463 161.235924,911.674097 L153.221422,912.627605 C150.192882,912.892234 149.382191,915.920775 145.971407,916.49624 L139.565687,917.437145 L138.578576,921.276377 L135.928078,919.310556 L137.940104,918.90311 L137.940104,917.29853 L133.962257,916.332421 L133.920252,911.674097 L130.706891,911.674097 C129.786987,910.300543 125.708329,905.82704 124.280168,905.247375 L124.280168,896.409581 L122.675588,896.409581 L122.675588,903.642794 C122.675588,905.192769 122.423559,905.070955 121.869097,906.049665 C124.691814,908.120498 127.905176,912.799824 132.315672,913.282878 C131.899825,914.832853 132.076245,916.017386 129.9046,915.693949 L122.70079,914.711039 C120.037691,914.496815 118.504519,912.50159 117.853445,910.069517 L113.951207,911.888321 C114.102424,912.669609 120.877785,919.444971 121.869097,919.709601 C121.554061,920.894134 121.726281,922.120672 120.264516,922.120672 C119.836068,922.120672 118.500318,920.961342 117.853445,920.511891 L117.09736,922.939764 L112.258416,921.998858 C113.308534,924.372125 112.581853,926.136324 115.446575,926.136324 C117.614018,926.136324 117.660224,925.74988 119.462226,925.334033 C121.402844,926.266538 122.978022,926.938614 125.888949,926.938614 C128.573051,926.938614 128.770473,927.182241 129.9046,927.740904 C131.353763,926.770595 131.315959,926.136324 133.117962,926.136324 L134.726743,926.136324 C136.524545,926.136324 136.486741,925.502052 137.940104,924.527543 L141.955756,924.729165 L145.169117,924.527543 C150.167679,924.527543 159.929577,920.978144 162.038214,918.105021 L165.881646,920.066641 L166.058066,921.314181 C162.44566,922.624729 160.853681,927.304055 155.611491,927.740904 C155.397267,930.328395 154.170729,932.563046 151.59584,932.563046 C148.806726,932.563046 150.369302,930.958466 147.580188,930.958466 C144.971695,930.958466 145.009499,930.319994 143.564537,929.349685 C141.985159,930.185579 141.19127,930.958466 138.742394,930.958466 C135.810465,930.958466 136.826979,931.676747 133.117962,931.756556 L133.117962,934.167627 L135.529033,934.167627 L137.625069,937.620415 L139.544684,937.380988 L142.287593,939.233396 C143.753558,939.372012 143.803963,938.989769 145.971407,938.989769 C149.722429,938.989769 150.558323,936.578698 153.20042,936.578698 C155.019225,936.578698 155.96013,938.082467 156.413781,939.792059 L153.234024,938.893158 L153.20042,942.20313 L150.575125,943.467472 L151.016174,944.320168 L157.279079,941.539456 L157.216072,943.811911 C157.216072,945.807136 155.208246,946.832051 154.00271,948.629853 L148.390879,948.890282 L144.362626,948.629853 L149.096559,950.545268 L149.184768,952.645505 L142.741244,952.065839 L142.758046,954.254285 L140.346975,954.254285 L140.346975,952.645505 L138.742394,952.645505 L138.742394,955.056576 L131.509181,955.056576 L135.428222,956.988793 C136.47834,960.223157 138.313946,960.681008 142.758046,960.681008 L146.500667,955.615238 L149.20157,956.619151 C151.59584,953.372186 154.17493,955.62784 157.216072,949.436344 C158.211584,947.407516 162.008811,942.597975 163.642794,941.39664 C162.62628,938.935163 162.706089,940.396927 165.251575,938.187479 C167.368613,939.237597 164.587901,938.989769 167.662646,938.989769 L169.267227,938.989769 C171.564885,938.989769 170.737392,938.737741 171.678298,937.380988 L168.464937,937.380988 L168.464937,935.776408 L170.871807,935.776408 C172.064741,931.315506 175.677148,933.121709 178.27724,931.164289 C181.591413,928.665008 181.246974,926.472361 186.136324,925.334033 C186.396753,922.19208 185.653269,922.893559 188.547395,922.120672 L189.811737,924.745967 C189.887345,921.339384 189.349685,922.595325 189.349685,920.511891 C189.349685,918.243636 191.185291,916.240011 191.760756,914.085168 L201.455446,911.014623 L206.180978,911.867319 L203.236447,919.806212 L203.005421,922.120672 L199.682847,926.875607 C201.056401,927.862718 201.40084,927.08563 201.40084,929.349685 L201.40084,932.563046 L203.811911,932.563046 L203.811911,934.167627 L197.385189,934.167627 L197.385189,935.776408 L200.59855,935.776408 C203.211244,935.776408 201.203418,936.473686 204.614201,937.380988 C205.319881,935.436169 208.642454,932.563046 211.040924,932.563046 C213.426792,932.563046 213.191566,934.167627 216.665357,934.167627 L218.269937,934.167627 C221.038048,928.942239 220.307166,926.115321 227.107731,924.527543 L227.107731,922.922962 L230.287488,922.024061 L230.321092,919.709601 L231.929873,919.709601 L231.929873,916.49624 L233.534453,916.49624 C233.118607,914.526218 232.1693,913.282878 235.143234,913.282878 L239.961176,913.282878 C242.636877,913.282878 246.03926,914.921062 247.190189,916.49624 C252.486985,916.613853 250.500161,917.042301 250.407751,921.314181 L243.976828,921.314181 C245.346182,922.507116 245.371385,922.922962 247.992479,922.922962 L251.205841,922.922962 L251.205841,921.314181 L256.830273,921.314181 L256.830273,919.709601 C261.110554,919.806212 265.525251,920.982344 266.470357,924.527543 L262.253083,923.557234 L260.850125,922.922962 C261.820434,924.372125 262.454705,924.334321 262.454705,926.136324 C262.454705,927.110833 258.8465,929.349685 257.636764,929.349685 C255.301301,929.349685 254.704834,927.656895 252.012331,926.938614 L252.012331,928.547395 C247.278399,928.15255 250.336343,926.938614 247.190189,926.938614 C245.022745,926.938614 244.97654,926.556371 243.174537,926.136324 L243.174537,927.740904 L238.352395,927.850116 L238.352395,929.349685 L239.961176,929.349685 L239.200891,931.773358 L240.88108,934.071016 L242.372247,934.167627 C248.412526,934.167627 242.741889,941.245423 239.158886,942.20313 L239.914971,944.626803 C239.154685,945.815537 234.332543,950.234433 232.732163,950.234433 C231.047774,950.234433 230.48071,948.108994 230.321092,946.218782 L233.572258,946.882456 L238.209579,945.021647 L238.352395,943.811911 C235.840513,944.017734 235.500275,944.614201 232.732163,944.614201 L227.107731,944.614201 C227.821811,947.281501 231.123382,950.641879 231.123382,951.040924 C231.123382,951.465172 229.968252,952.800922 229.518802,953.451995 L227.910021,953.451995 L224.310216,957.946501 L222.289789,958.269937 L222.289789,959.874517 L223.894369,959.874517 L223.894369,961.483298 L220.681008,961.483298 L220.681008,963.087879 L223.264299,965.326731 C225.272124,964.34802 234.013307,956.207505 235.042423,954.157675 C238.339794,947.571334 242.972915,948.176202 244.783318,941.39664 L247.992479,941.39664 C248.849376,937.733828 248.160498,938.519316 251.205841,938.187479 C250.239732,939.632441 249.60126,939.598837 249.60126,941.39664 L249.60126,947.021072 C249.60126,950.881306 256.254808,954.426505 259.241344,955.858866 L263.261196,953.451995 L259.249745,954.283689 L254.721636,951.35596 C253.385886,947.953577 251.205841,949.159112 251.205841,946.218782 L251.205841,945.416492 C251.205841,941.909097 252.814621,942.501364 252.814621,938.989769 L252.814621,938.187479 C252.814621,936.33507 253.373284,935.776408 255.225693,935.776408 C260.732512,935.776408 260.652703,930.958466 264.063486,930.958466 L266.470357,930.958466 L265.668067,938.989769 L267.230643,938.116071 L267.276848,936.578698 L267.276848,932.563046 L269.830735,931.214695 L274.510061,931.021473 C275.677792,930.866055 277.639413,932.096794 278.521512,932.563046 L278.521512,934.167627 C278.521512,935.864618 280.382321,940.648956 280.932583,943.005421 L276.505285,946.781645 C277.160559,948.33582 276.916932,945.559308 276.916932,948.629853 L276.916932,953.451995 C276.916932,955.00197 276.664903,954.880156 276.110441,955.858866 L278.521512,958.269937 C277.240368,960.689409 273.417938,964.69666 270.490209,964.69666 L260.043634,964.69666 L260.501486,967.002719 L258.439054,967.107731 L257.636764,980.763466 L259.199339,979.889768 L259.241344,978.352395 L259.241344,973.534453 C259.241344,971.732451 262.568118,967.107731 264.865777,967.107731 L271.292499,967.107731 C272.825672,967.107731 285.431289,958.106119 288.161596,956.665357 L289.031094,958.227932 C289.70737,957.770081 290.896104,956.665357 291.374958,956.665357 C291.832809,956.665357 302.195374,964.667256 303.904966,965.822386 C310.512309,970.283288 309.277371,970.102668 312.578942,978.03736 C315.578079,985.24537 324.504083,1000.38807 325.919642,1006.47036 L321.861986,1007.05842 L324.974536,1009.20066 L325.558401,1010.60362 L324.966135,1012.83827 C327.394008,1012.36362 326.486706,1012.09059 328.326513,1012.09059 C329.616058,1012.09059 339.575378,1023.69649 339.575378,1025.74632 C339.575378,1026.37219 335.156481,1035.73085 334.429799,1037.47404 C333.838288,1038.89635 309.836033,1045.08124 307.441764,1069.3901 C306.091588,1083.09835 311.450853,1090 325.919642,1090 C331.920557,1090 313.47401,1074.46571 324.966135,1057.17189 C336.45826,1039.87808 356.767911,1044.30821 359.809053,1042.77084 C361.052393,1042.14077 363.282843,1041.38048 364.097735,1040.6328 C366.118162,1038.78459 363.854108,1038.82239 367.78575,1037.78488 L366.891049,1030.56847 L366.891049,1029.76618 C366.891049,1025.70432 361.266617,1026.35539 361.266617,1022.53716 C361.266617,1021.37363 367.416108,1011.85536 368.49563,1009.68372 C370.226224,1006.20153 372.931328,997.951799 378.156716,998.208028 L389.380378,999.241344 C391.220185,999.409363 391.53102,998.947311 392.59794,998.439054 C393.732067,998.997717 393.92949,999.241344 395.807101,999.241344 C402.002797,999.241344 403.481364,1000.6275 408.009473,1001.59361 L407.055966,999.241344 L419.909411,999.241344 C422.404492,999.241344 427.940714,1000.57709 427.940714,1002.45471 C427.940714,1004.40372 424.731553,1003.71065 424.731553,1005.66807 C424.731553,1006.8694 426.852792,1009.46109 429.549495,1009.68372 L429.549495,1014.50166 L431.154075,1014.50166 L431.154075,1010.48601 C431.154075,1007.34406 429.944339,1010.3978 429.549495,1005.66807 L431.620328,1005.63866 L432.027774,1002.4085 L431.28009,1000.90473 L432.762856,996.830273 L428.747205,996.62865 L424.689548,996.1834 L413.482688,996.830273 L400.629243,996.830273 C396.819415,996.830273 394.82419,995.931372 391.808251,995.322303 L386.167017,996.027983 L380.542584,996.027983 C377.476239,996.027983 380.252752,996.27161 378.135714,995.221492 C380.798813,991.243645 383.281292,991.38226 386.687875,988.513338 C387.906012,987.488423 390.413694,979.81836 391.778848,977.537504 C392.988584,975.517076 405.682411,961.483298 407.055966,961.483298 C409.668659,961.483298 407.660834,962.180577 411.084219,963.083678 L409.458636,959.836713 L414.284979,959.072227 C413.381877,956.892182 413.474287,956.929986 416.69605,956.665357 C417.607552,960.07194 418.30063,958.068314 418.30063,960.681008 L418.30063,962.285589 C418.30063,964.898282 417.607552,962.894657 416.69605,966.305441 L418.30063,966.305441 L418.288029,964.747065 L427.138424,967.107731 C429.020235,966.666681 429.511691,966.305441 431.960566,966.305441 C432.641043,966.305441 434.367437,968.027634 434.367437,968.712311 C434.367437,969.195366 433.258512,970.379899 432.800661,971.001569 L434.329633,971.656842 L439.189579,971.123382 L438.441895,968.863528 L440.794159,967.910021 C440.063277,966.326443 439.500414,964.69666 442.40294,964.69666 L444.814011,964.69666 L444.814011,963.087879 L440.794159,963.087879 C438.962753,963.087879 435.858604,964.88148 436.778508,967.107731 C433.245911,966.813698 433.1493,966.523865 434.207819,964.053987 L432.762856,962.285589 L432.762856,959.874517 L427.940714,964.69666 L423.925063,964.69666 C422.051652,964.69666 419.909411,962.554419 419.909411,960.681008 L419.909411,954.254285 C421.169553,953.58641 426.957804,950.234433 427.940714,950.234433 L429.549495,950.234433 C434.136411,950.234433 435.871206,951.843214 439.189579,951.843214 C440.260699,951.843214 445.435681,949.234721 448.023172,948.629853 C448.80446,949.150712 455.256386,953.061351 455.256386,953.451995 C455.256386,955.422017 450.409041,959.341057 449.531142,961.159862 L445.616302,963.087879 L450.434243,963.087879 L450.434243,967.107731 L452.043024,967.107731 L452.043024,962.285589 C458.163113,962.793846 458.473947,967.746203 465.602149,968.052837 L474.532353,974.336744 L474.532353,972.727963 C470.336081,969.917847 472.63374,968.048637 466.568258,967.868016 L465.69876,966.305441 C458.818386,966.150023 462.090554,963.524728 456.860966,963.087879 C456.125883,960.323968 455.256386,960.96664 455.256386,959.874517 C455.256386,955.480823 458.31433,953.821637 459.272037,950.234433 C455.495813,950.150424 452.870517,949.251523 451.240734,947.021072 C457.827075,946.878256 461.485686,940.77917 469.714411,940.594349 L469.714411,938.187479 C465.694559,938.519316 462.792033,940.594349 460.074327,940.594349 C457.663256,940.594349 456.062876,943.811911 453.647605,943.811911 C449.203505,943.811911 441.235209,947.886369 440.764756,948.037586 L433.565147,947.021072 C431.952165,946.802648 432.275602,946.777445 431.044863,946.130572 L435.169727,940.594349 L436.778508,940.594349 L439.143374,940.611151 L438.387289,938.187479 C439.874256,935.957028 439.916261,936.77192 441.205806,935.381563 C442.268525,934.230634 442.209719,933.373737 443.390051,931.945577 C444.650193,930.429206 448.086179,927.740904 450.434243,927.740904 C452.27405,927.740904 451.370949,928.013935 453.647605,928.547395 C454.596912,924.997996 456.436718,926.19093 459.272037,923.725253 C460.250747,924.275514 460.133134,924.527543 461.683108,924.527543 C465.87518,924.527543 465.123295,926.821001 470.516702,926.938614 C473.364622,931.189492 474.826386,928.50539 476.199941,931.907773 L478.41359,931.17689 L480.156786,932.563046 L477.850726,932.59245 L476.972828,935.436169 L480.156786,935.776408 L481.765567,935.776408 C484.55468,935.776408 482.992105,937.380988 485.781218,937.380988 L488.994579,937.380988 C490.846988,937.380988 491.405651,937.943851 491.405651,939.792059 L491.586271,940.623753 L490.60336,947.827563 L492.207941,947.827563 L492.207941,945.416492 C492.37596,945.538305 501.848025,956.119295 501.848025,956.665357 C501.848025,958.416954 506.804582,974.550968 507.590071,976.037935 L505.863676,978.352395 C505.876278,978.369197 506.670167,979.851964 506.670167,979.961176 C506.670167,982.166424 505.380622,982.909908 504.02807,984.283462 L493.816722,977.550105 L493.816722,979.158886 C496.710847,979.927572 495.963163,979.230294 496.450418,982.011007 L505.061386,987.190189 C505.708259,986.740738 507.044009,985.581408 507.472457,985.581408 C509.828922,985.581408 508.014318,989.462645 511.488109,992.012331 L511.488109,987.190189 C511.488109,983.678594 509.883528,984.270861 509.883528,980.763466 L509.681906,979.158886 L509.883528,975.139034 L509.883528,974.336744 C509.883528,970.006057 507.438853,971.45522 509.081238,967.910021 C510.236368,968.682908 513.27331,971.123382 514.70147,971.123382 C516.852112,971.123382 520.342705,973.261423 521.128193,974.336744 L522.736974,974.336744 L522.409337,972.946387 L520.342705,969.560807 L517.956836,970.048061 L513.09689,969.514601 C512.260996,966.38525 509.778517,966.040811 507.472457,967.107731 C506.796181,965.830787 505.061386,963.478523 505.061386,962.285589 C505.061386,958.223732 503.549216,956.845977 503.255183,952.876531 L495.421302,946.218782 L495.442305,944.610001 L494.60221,938.229483 L497.126694,939.107382 L499.420152,937.427193 L501.848025,938.187479 L501.953037,942.526567 L505.863676,940.594349 L509.081238,940.594349 C510.022144,939.241797 509.194651,938.989769 511.488109,938.989769 C514.462043,938.989769 514.508248,938.603326 516.427864,938.225283 L513.09689,948.629853 C513.533739,950.511665 513.89918,951.00312 513.89918,953.451995 C513.89918,957.379437 520.514924,964.675657 522.736974,966.305441 L522.736974,969.514601 C524.538976,969.098755 524.585182,968.712311 526.752625,968.712311 C530.79768,968.712311 539.190224,964.69666 541.210651,964.69666 C543.050458,964.69666 542.147356,964.96969 544.428213,965.49895 C544.634036,968.010832 545.230503,968.351071 545.230503,971.123382 L545.230503,972.727963 C545.230503,978.167574 542.458191,976.357171 540.446165,979.011869 L537.195,978.352395 L537.195,980.763466 C542.672415,980.641653 539.702682,979.158886 542.819432,979.158886 C545.574942,979.158886 544.684442,980.595447 545.230503,983.174537 C549.884626,981.931198 546.835084,981.540554 546.835084,979.961176 C546.835084,978.600223 547.906204,976.957838 548.284246,976.105143 L546.738473,974.30314 L547.641574,971.123382 C547.07451,969.989255 546.835084,969.787632 546.835084,967.910021 L546.835084,967.107731 C546.835084,965.045299 545.898378,962.877855 545.230503,961.483298 C542.424588,962.134372 542.525399,963.087879 539.606071,963.087879 C536.333903,963.087879 530.339829,965.935799 525.950335,966.305441 C523.58967,964.721862 516.310251,956.262111 516.310251,953.451995 L516.310251,948.629853 C516.310251,944.320168 518.721322,944.828426 518.721322,942.20313 L518.721322,939.792059 C518.721322,937.120559 520.162084,937.439795 522.736974,937.380988 L522.736974,935.776408 L525.950335,935.776408 L526.811432,937.532205 L529.163696,936.578698 C532.011617,937.948052 533.632999,937.422993 536.564929,939.62404 C538.976,941.434444 539.732085,942.681984 543.411699,943.106232 L546.032793,949.432143 L552.459516,949.432143 L552.459516,951.040924 C554.017891,950.910709 555.672877,951.078728 555.672877,949.432143 C555.672877,946.538018 546.00339,943.345659 544.428213,938.989769 C550.17866,938.989769 555.231828,937.876644 555.672877,932.563046 L559.688529,932.563046 L559.688529,930.958466 L557.281658,930.958466 C555.42925,930.958466 554.870587,930.395603 554.870587,928.547395 L554.870587,925.334033 C550.283671,926.556371 553.261806,927.064628 553.261806,930.958466 C553.261806,931.420518 549.754412,935.822613 549.086537,936.041037 L545.230503,937.380988 C544.58363,936.931538 543.24368,935.776408 542.819432,935.776408 C539.748887,935.776408 542.525399,935.52858 540.420962,936.549295 L536.434714,934.99932 L539.618672,929.416893 L545.230503,928.547395 C546.814081,924.166302 546.263819,929.769732 546.835084,924.527543 C544.726446,925.094606 540.874613,927.740904 539.606071,927.740904 C535.544214,927.740904 536.833759,926.363149 533.981638,925.334033 C534.5319,926.312743 534.788129,926.19093 534.788129,927.740904 C534.788129,929.803336 534.590707,929.685723 533.981638,930.958466 C534.296674,932.441233 535.128367,934.167627 533.179348,934.167627 C531.8646,934.167627 530.768277,933.688773 530.768277,932.563046 C530.768277,931.475124 531.637775,932.113596 532.377058,929.349685 L530.768277,929.349685 L530.772477,931.004671 L525.143844,930.958466 L523.539264,930.958466 C520.468719,930.958466 523.249431,931.202093 521.128193,930.151975 C522.917594,927.677897 520.808957,928.602001 524.341554,929.349685 C523.543464,925.913699 523.803894,926.749593 521.128193,925.334033 L521.128193,922.120672 C525.631099,923.322007 525.681505,926.136324 532.377058,926.136324 L532.377058,924.527543 L527.143269,924.1453 L530.768277,919.709601 C527.357493,920.621103 529.365319,921.314181 526.752625,921.314181 L521.934684,921.314181 L521.934684,919.709601 L526.752625,919.709601 L526.752625,915.693949 C526.752625,913.841541 527.311288,913.282878 529.163696,913.282878 L530.768277,913.282878 C533.843023,913.282878 531.06231,913.03505 533.221353,914.10197 L534.5319,911.422069 L536.392709,916.49624 C537.934283,916.85748 540.979625,918.105021 542.017142,918.105021 C544.772652,918.105021 546.213414,916.41223 546.637661,913.711326 L540.31175,916.462636 L541.168646,913.106458 L538.282922,913.896147 L535.590419,909.267227 C532.897916,909.985507 532.301449,911.674097 529.965987,911.674097 C527.580118,911.674097 526.130955,907.440021 525.891528,905.100358 L523.581269,906.032863 L524.341554,908.464937 C523.136019,908.175104 521.934684,908.288517 521.934684,906.856156 C521.934684,903.520981 522.430339,901.82819 524.194538,900.48824 L525.127043,902.794299 L527.496109,901.886997 L527.260882,902.672485 L537.182398,906.759545 L542.819432,906.049665 L546.032793,906.049665 C547.721383,910.71639 554.215313,913.614716 559.722133,914.98827 L562.90189,914.085168 C567.392195,916.462636 572.655387,918.126023 574.150755,923.725253 C575.70913,923.599238 577.364116,923.763057 577.364116,922.120672 C577.364116,919.986832 571.823693,915.097482 569.328613,914.887459 C569.731858,914.173378 569.849471,913.282878 570.937394,913.282878 C572.777201,913.282878 571.869899,913.555909 574.150755,914.085168 L574.184359,912.661208 L578.149605,911.720303 L580.678289,912.488989 L580.606881,909.464649 L587,908.464937 L587,904.445084 L585.39542,904.445084 C584.471316,905.705226 585.248403,906.049665 582.984348,906.049665 C580.632084,906.049665 580.753898,906.305894 579.770987,906.856156 C579.346739,906.238686 579.342539,905.247375 578.166407,905.247375 C576.59123,905.247375 576.956671,907.389616 576.561826,909.267227 C572.848609,909.351236 573.865123,910.069517 570.937394,910.069517 C568.097874,910.069517 569.593243,911.917725 566.921742,911.674097 L554.887389,910.653383 L554.870587,909.267227 L551.657226,909.267227 L549.107539,906.175679 C554.303523,906.049665 554.169108,904.445084 556.475168,904.445084 C556.521373,904.445084 560.877263,906.633531 561.29731,906.856156 C562.565852,906.247087 562.448239,906.049665 564.510671,906.049665 L570.130903,906.049665 C572.281545,906.049665 572.50837,904.894535 573.344264,903.642794 C577.145692,903.558785 576.498819,904.457686 577.364116,901.231723 L574.953045,901.231723 L577.410322,897.253876 L576.406409,894.863807 C572.751998,894.88901 573.373668,894.775597 571.739684,897.216072 L572.499969,899.639744 C571.580066,900.639457 569.57224,902.840504 567.724032,902.840504 L565.312961,902.840504 L565.312961,901.231723 L562.90189,901.231723 L562.90189,902.840504 C557.424474,902.71449 560.394208,901.231723 557.281658,901.231723 C553.627247,901.231723 546.310024,894.767196 541.210651,897.216072 C539.744686,895.943328 538.35853,894.805 535.590419,894.805 L530.768277,894.805 L530.768277,887.575988 C533.049133,888.105247 532.141831,888.378278 533.981638,888.378278 C534.09085,888.378278 535.573617,887.588589 535.590419,887.575988 L542.853036,890.71374 L545.906779,888.243863 L546.032793,889.987059 C549.582192,889.688825 552.963573,887.966632 553.261806,884.362626 L547.675178,886.063818 L545.986588,882.779048 C543.142868,884.690263 543.873751,886.773697 541.210651,886.773697 C539.677479,886.773697 540.66459,885.164916 537.99729,885.164916 L533.179348,885.164916 C530.957298,885.164916 531.247131,884.547447 530.768277,882.753845 C535.233379,881.716329 536.632136,879.569887 538.80378,876.331323 L536.375907,875.571038 C534.019442,877.587264 534.573905,878.410557 531.574768,878.738194 L531.574768,874.722542 C531.574768,873.407794 531.091713,872.311471 529.965987,872.311471 C527.353293,872.311471 529.163696,875.272804 529.163696,876.331323 C529.163696,877.045403 528.268996,877.935904 527.559116,877.935904 C525.857925,877.935904 526.496396,877.650271 524.341554,877.133613 C522.875589,880.30497 525.916731,882.140576 519.662228,880.225161 C517.154546,879.460675 514.331829,877.793088 511.488109,877.133613 L511.488109,873.916052 C511.488109,869.816391 514.285623,872.311471 516.310251,872.311471 C521.334016,872.311471 521.081988,867.774961 525.143844,866.687039 L524.442366,861.050005 L529.978588,858.685139 L529.965987,857.046955 L529.965987,856.244664 C529.965987,854.69469 529.713958,854.816504 529.163696,853.837794 L526.849236,855.559987 L524.324752,854.682089 L523.346042,859.420222 L520.325903,859.458026 L520.325903,861.869097 L516.251444,863.351864 C514.331829,861.600267 512.597034,860.722368 512.2946,857.046955 L508.220141,855.564188 L507.686681,859.500031 L508.396561,861.024802 L510.685819,861.066807 L509.732311,863.419071 L512.748251,866.212385 C511.160472,868.774673 510.185962,869.442549 508.602384,873.445599 C506.031695,879.943729 506.665967,873.63462 501.045735,876.331323 L495.610323,873.441398 C493.291663,870.740494 490.162311,867.493529 484.978928,867.493529 L480.963276,867.493529 C477.846526,867.493529 480.81626,868.976296 475.338844,869.10231 C474.704573,870.664886 472.469921,872.311471 470.516702,872.311471 C468.294652,872.311471 465.371123,869.156916 461.683108,868.29582 C460.838813,871.454575 449.900783,876.331323 448.023172,876.331323 L446.418592,876.331323 C443.751292,876.331323 444.742603,874.722542 443.205231,874.722542 C442.117308,874.722542 442.75998,875.59204 439.991869,876.331323 C440.248098,873.264978 441.663657,872.357676 444.007521,871.509181 L444.007521,865.884748 L441.428431,868.1236 L440.033874,867.426322 L437.761418,869.379541 L436.320656,866.472815 L432.523429,857.151966 L435.169727,857.046955 L436.778508,857.046955 L439.886857,852.951494 L439.008959,849.049255 L435.577173,845.340238 C433.455934,848.410784 432.762856,846.402958 432.762856,849.015652 L432.762856,851.426723 C430.267776,852.741471 428.747205,853.17832 428.747205,857.046955 C428.747205,858.790151 430.851641,861.058406 431.960566,861.869097 L431.960566,865.082458 L436.467673,872.046841 C434.174215,872.731518 434.12801,873.117962 431.960566,873.117962 C431.082667,873.117962 430.39799,871.042928 426.336134,870.706891 L430.074554,873.584214 C429.457085,874.810752 422.669121,881.149265 420.711701,881.149265 L417.49834,881.149265 C415.620729,881.149265 415.419106,880.909838 414.284979,880.346975 L411.932714,881.300482 L412.777009,877.965307 L410.269327,877.935904 L410.269327,870.706891 C410.269327,867.913577 408.660546,869.480353 408.660546,866.687039 L408.660546,864.280168 L407.055966,864.280168 C407.055966,870.148228 408.660546,870.16923 408.660546,874.722542 C408.660546,877.419245 407.194581,877.81409 405.447185,878.738194 L406.417494,882.716041 C400.772059,882.875659 403.745993,884.362626 400.629243,884.362626 C397.903136,884.362626 394.072306,886.668686 389.380378,886.773697 C390.653121,884.371027 391.199183,883.560336 394.20252,882.753845 L394.20252,881.149265 L392.59794,881.149265 Z M433.565147,852.229013 L435.19913,852.220612 L434.203618,848.255366 L437.551395,849.116463 L436.816312,853.846195 L433.565147,853.837794 L433.565147,852.229013 L433.565147,852.229013 Z M270.490209,865.082458 C270.490209,863.435873 272.145195,863.603892 273.69937,863.477878 L271.817558,866.514819 C271.481521,866.262791 270.490209,866.25859 270.490209,865.082458 L270.490209,865.082458 Z M520.729148,863.876923 L521.128193,866.687039 L518.318077,866.287994 L520.729148,863.876923 L520.729148,863.876923 Z M515.344142,867.653147 L517.112541,867.493529 L516.952923,869.261928 L515.344142,867.653147 L515.344142,867.653147 Z M263.11418,866.649234 L267.239043,867.67415 L265.176612,870.946318 L262.278286,869.858395 L263.11418,866.649234 L263.11418,866.649234 Z M259.241344,869.9004 L260.850125,869.9004 L260.850125,867.493529 L259.241344,867.493529 L259.241344,869.9004 Z M492.207941,882.753845 L494.619012,878.738194 C492.951424,875.583639 489.494436,870.706891 484.978928,870.706891 C481.673156,870.706891 477.930535,871.483978 476.947625,873.916052 L473.734263,873.916052 C472.520327,875.571038 469.714411,876.646359 469.714411,877.935904 C469.714411,878.725592 472.251497,881.455899 472.927773,881.951555 L472.927773,879.540484 C472.927773,876.398531 474.141709,879.456475 474.532353,874.722542 C475.250634,875.125788 476.141134,875.243401 476.141134,876.331323 C476.141134,877.864496 474.532353,876.877385 474.532353,879.540484 C474.532353,882.144777 477.392875,882.489216 477.749915,886.773697 L480.156786,886.773697 C482.219218,886.773697 482.101604,886.966919 483.416352,887.643195 L484.978928,886.773697 C484.99573,886.786299 486.478497,887.575988 486.587709,887.575988 C488.969377,887.575988 490.594959,885.446348 492.207941,884.362626 L492.207941,882.753845 L492.207941,882.753845 Z M464.787257,871.269754 L467.65618,875.222398 L460.078528,877.137814 L460.074327,875.524832 L456.907171,876.503543 L456.911372,874.831755 L464.787257,871.269754 L464.787257,871.269754 Z M247.190189,876.331323 L250.407751,877.133613 C253.612711,874.226887 250.634576,878.52397 252.012331,874.722542 L247.190189,874.722542 L247.190189,876.331323 L247.190189,876.331323 Z M240.582846,880.48139 L243.976828,879.540484 L243.976828,877.142014 L237.663518,875.167792 L237.079652,875.886073 L240.582846,880.48139 L240.582846,880.48139 Z M257.636764,877.935904 L256.036384,877.940104 L254.423402,881.149265 C256.574044,881.665923 255.935572,881.951555 257.636764,881.951555 C258.766691,881.951555 261.824635,878.07872 262.454705,877.133613 C259.153134,877.410845 260.661104,877.935904 257.636764,877.935904 L257.636764,877.935904 Z M442.276926,876.272517 L440.432919,880.174755 L448.023172,888.378278 L451.442357,888.353075 L450.434243,880.346975 C453.294765,878.830604 454.416291,879.469076 455.256386,876.331323 C451.488562,876.642158 451.282739,877.935904 447.225083,877.935904 C444.150337,877.935904 446.93105,877.688076 444.986231,878.565974 L442.276926,876.272517 L442.276926,876.272517 Z M236.747815,880.346975 C236.550393,877.948505 236.16815,876.331323 233.534453,876.331323 C231.63584,876.331323 231.173788,876.885785 231.123382,878.738194 L234.12252,879.082633 L236.747815,880.346975 L236.747815,880.346975 Z M219.076428,879.540484 L221.483298,879.540484 L221.483298,877.935904 L219.076428,877.935904 L219.076428,879.540484 Z M251.205841,879.540484 L252.814621,879.540484 L252.814621,877.935904 L251.205841,877.935904 L251.205841,879.540484 Z M287.359306,881.951555 C287.359306,877.986309 287.493721,878.024113 291.374958,877.935904 L290.471856,881.119862 L287.359306,881.951555 L287.359306,881.951555 Z M424.731553,881.951555 L428.97403,885.442148 L436.778508,879.540484 C436.644093,873.517007 434.758081,876.230512 430.465198,876.461538 L424.731553,881.951555 L424.731553,881.951555 Z M496.227793,882.753845 L500.243444,884.362626 C501.432178,886.609879 501.53719,887.575988 505.061386,887.575988 L507.472457,887.575988 C510.211165,887.575988 512.307201,883.560336 514.70147,883.560336 C516.873114,883.560336 516.91932,883.942579 518.721322,884.362626 C517.864426,881.157666 514.537652,880.430984 510.845437,880.187357 L509.106441,878.813802 L504.326303,880.12855 L498.634663,878.738194 C500.096428,881.787737 500.180437,882.426209 496.227793,882.753845 L496.227793,882.753845 Z M408.660546,880.346975 L408.660546,878.738194 L410.428945,880.187357 L408.660546,880.346975 L408.660546,880.346975 Z M529.163696,881.149265 L530.768277,881.149265 L530.768277,879.540484 L529.163696,879.540484 L529.163696,881.149265 Z M247.992479,881.951555 L247.816059,880.065543 L245.367184,881.611317 L247.992479,881.951555 L247.992479,881.951555 Z M270.700233,885.051504 L274.505861,885.164916 C273.018893,882.947067 272.204002,881.426496 268.671405,881.262678 L270.700233,885.051504 L270.700233,885.051504 Z M467.261336,883.577138 L466.354034,881.208072 C469.70181,882.001961 469.588397,883.379716 471.323192,885.971407 C469.201954,887.021525 471.982667,886.773697 468.912121,886.773697 L466.50105,886.773697 L467.261336,883.577138 L467.261336,883.577138 Z M253.616912,905.247375 L253.616912,903.642794 C247.841262,899.774159 248.063887,894.880609 244.783318,894.00271 L244.783318,890.789349 C244.783318,888.495891 244.52709,889.319184 243.174537,888.378278 L244.128045,886.026013 C242.179026,886.391454 242.13282,886.773697 239.961176,886.773697 C239.851964,886.773697 238.369197,885.984009 238.352395,885.971407 C239.545329,884.341624 240.196403,883.560336 243.174537,883.560336 C244.606899,883.560336 244.493486,884.765872 244.783318,885.971407 C247.656441,885.299332 248.555343,884.362626 252.012331,884.362626 L252.814621,884.362626 L258.49366,884.833079 C261.824635,883.371315 260.942535,882.434609 264.063486,880.346975 L265.714272,883.539334 C263.399812,883.749357 262.454705,883.539334 262.454705,885.971407 C262.454705,890.415507 271.074075,892.507342 274.505861,894.805 C273.564955,896.207958 271.905768,898.820652 269.683718,898.820652 L268.881428,898.820652 C267.331454,898.820652 267.453268,898.568624 266.470357,898.018362 C264.055085,902.588476 264.197902,902.466662 260.043634,905.247375 L253.616912,905.247375 L253.616912,905.247375 Z M424.731553,881.951555 L424.731553,883.560336 L423.122772,883.560336 L424.731553,881.951555 L424.731553,881.951555 Z M455.256386,883.560336 L453.487987,883.396518 L455.096768,881.791937 L455.256386,883.560336 L455.256386,883.560336 Z M219.878718,885.971407 C220.353371,880.267166 220.794421,881.413895 224.69666,879.540484 L231.90047,881.275279 L231.929873,884.362626 L228.712311,884.362626 C226.418853,884.362626 227.246346,884.614655 226.305441,885.971407 L224.738664,885.097709 C224.268211,885.782386 224.264011,886.773697 223.092079,886.773697 C221.390888,886.773697 222.03356,886.483865 219.878718,885.971407 L219.878718,885.971407 Z M459.272037,885.971407 C460.137335,883.577138 461.87633,883.005874 464.89647,882.753845 L464.89647,885.164916 L462.468597,884.408831 L459.272037,885.971407 L459.272037,885.971407 Z M517.112541,889.184768 L521.128193,887.575988 L521.128193,889.987059 L522.736974,889.987059 C523.472056,886.828304 523.106615,886.727492 525.950335,885.971407 C524.072724,883.367114 517.982039,885.925202 517.112541,889.184768 L517.112541,889.184768 Z M276.916932,891.591639 C274.287436,892.809776 266.575369,889.356988 265.668067,885.971407 L268.881428,885.971407 C269.591308,887.933028 269.805532,888.378278 272.90128,888.378278 L276.110441,888.378278 L276.916932,891.591639 L276.916932,891.591639 Z M285.662315,885.765584 L285.754726,887.575988 L282.381746,887.227348 L285.662315,885.765584 L285.662315,885.765584 Z M492.800207,885.929402 L494.577007,886.840905 L493.640302,889.940854 L492.031521,889.949254 L492.800207,885.929402 L492.800207,885.929402 Z M297.80168,887.575988 L300.212751,887.575988 L297.80168,889.184768 L297.80168,887.575988 L297.80168,887.575988 Z M513.89918,889.184768 C512.815458,889.184768 512.693644,888.290068 512.256795,887.433172 L515.461756,886.597278 C515.188725,887.958231 515.360944,889.184768 513.89918,889.184768 L513.89918,889.184768 Z M526.924845,886.00081 L529.940784,887.622193 L528.987277,890.743144 L525.878927,891.579038 L526.924845,886.00081 L526.924845,886.00081 Z M455.11357,886.735893 C457.373424,887.823815 454.592711,887.575988 457.667457,887.575988 L461.683108,887.575988 L461.683108,889.184768 L454.277676,889.940854 L455.11357,886.735893 L455.11357,886.735893 Z M283.994728,891.537033 L280.168097,892.557748 L279.365807,889.302382 L281.050197,888.739518 L284.914631,889.365389 L283.994728,891.537033 L283.994728,891.537033 Z M237.205666,888.164054 L237.550105,890.789349 L235.664093,890.612929 L237.205666,888.164054 L237.205666,888.164054 Z M496.227793,891.591639 C496.513425,888.138851 496.11018,890.146677 497.832373,887.575988 L503.343393,889.541809 L503.456806,890.789349 L496.227793,891.591639 L496.227793,891.591639 Z M294.588319,892.393929 L296.192899,892.393929 L296.192899,890.789349 L294.588319,890.789349 L294.588319,892.393929 Z M523.539264,894.00271 C520.880365,893.385241 519.574018,893.150014 518.721322,890.789349 L521.926283,892.406531 L524.286948,891.440422 L523.539264,894.00271 L523.539264,894.00271 Z M461.657906,892.860182 L458.461346,893.099609 C450.787083,893.780085 453.189753,899.492728 446.590811,904.617304 C441.306617,908.716965 438.370487,911.25405 435.169727,917.29853 C440.273301,916.109796 445.460884,915.509129 448.023172,911.674097 C451.236534,913.001447 455.168176,909.872095 456.058676,906.499115 L460.868217,906.079068 L464.89647,907.658446 L464.89647,900.429433 C460.931224,899.370914 461.561295,897.896548 460.238146,894.968819 L461.657906,892.860182 L461.657906,892.860182 Z M498.634663,898.820652 L499.441154,898.820652 C501.915232,898.820652 508.92162,901.189718 510.685819,902.034013 C513.248107,900.803275 517.982039,899.173492 518.721322,896.409581 L516.7471,895.905524 L513.09689,893.20042 C511.215078,893.637269 510.723623,894.00271 508.274747,894.00271 C505.825872,894.00271 505.036183,894.775597 503.456806,895.611491 C501.574994,895.170442 501.083539,894.805 498.634663,894.805 C492.107129,894.805 489.410426,892.028488 484.176638,891.591639 L484.176638,894.00271 C489.79687,894.473163 498.319628,898.820652 498.634663,898.820652 L498.634663,898.820652 Z M238.352395,894.00271 C238.352395,890.856556 239.566332,893.9145 239.961176,889.184768 C241.750577,889.663622 242.372247,889.369589 242.372247,891.591639 L242.372247,892.393929 C242.372247,893.948104 242.624276,893.82629 243.174537,894.805 L238.507813,897.4723 L238.352395,894.00271 L238.352395,894.00271 Z M299.641487,897.048053 L306.639474,897.216072 C306.152219,895.397267 305.866587,894.00271 303.426113,894.00271 L297.570654,894.170729 L299.641487,897.048053 L299.641487,897.048053 Z M317.081848,898.820652 L317.081848,897.216072 L314.086911,896.888435 L310.655126,894.805 C311.40281,897.602515 313.570253,898.745044 317.081848,898.820652 L317.081848,898.820652 Z M223.894369,898.820652 C221.840338,897.447098 221.483298,897.82094 220.681008,895.611491 L224.587447,897.426095 L223.894369,898.820652 L223.894369,898.820652 Z M312.263906,905.247375 L312.263906,903.642794 L308.357467,901.82819 L308.244054,899.627143 L304.997089,900.290817 C306.815894,896.010536 305.656563,901.634968 307.441764,897.216072 C311.213788,898.09397 311.906866,900.429433 316.279558,900.429433 C323.138929,900.429433 326.272482,898.820652 330.556963,903.827615 C333.850134,907.675248 336.815667,909.9183 343.591029,910.069517 L345.82568,911.959729 L349.463289,917.937002 L344.39752,918.105021 L342.788739,914.887459 L342.788739,919.709601 C339.348552,918.793898 338.865498,917.424544 337.164306,914.887459 L335.559726,915.693949 L336.362016,918.105021 C338.151417,918.579674 338.773087,918.289841 338.773087,920.511891 C338.773087,922.511316 335.967172,922.120672 333.950945,922.120672 L333.148655,927.740904 L327.377206,932.382426 L325.760024,931.118084 L322.69788,931.055077 L320.29521,930.958466 L320.29521,928.547395 L315.993926,930.479612 C314.16252,929.908348 316.939032,930.151975 313.868487,930.151975 L312.263906,930.151975 L306.622672,929.446296 C303.606733,930.055364 301.611509,930.958466 297.80168,930.958466 C294.32789,930.958466 294.563116,932.563046 292.177248,932.563046 C291.925219,932.563046 285.653914,926.556371 283.343654,925.334033 L283.343654,922.120672 C281.755876,920.957141 282.133918,922.070266 281.734874,919.709601 L280.793968,913.303881 C280.495734,910.695387 281.25602,912.341972 280.130293,910.069517 L282.667378,906.137875 C282.007904,903.773009 281.734874,904.680311 281.734874,902.840504 C281.734874,900.677261 282.826996,898.98447 284.145945,898.018362 L283.192437,895.666097 L288.934483,893.137413 C293.067748,895.170442 290.387847,892.729967 293.294573,896.094545 C294.126267,897.056454 296.432326,898.820652 297.80168,898.820652 C301.283872,898.820652 300.284159,900.101796 304.228403,900.429433 L302.745636,904.503891 C305.656563,905.701026 304.177997,903.642794 308.244054,903.642794 C308.672503,903.642794 310.008253,904.802125 310.655126,905.247375 L312.263906,905.247375 L312.263906,905.247375 Z M166.058066,897.216072 C165.625417,897.833541 165.621217,898.820652 164.449285,898.820652 C162.748094,898.820652 163.390766,898.53502 161.235924,898.018362 C161.500553,894.821802 161.55936,895.397267 163.642794,894.00271 L164.625705,897.169866 L166.058066,897.216072 L166.058066,897.216072 Z M278.538314,896.455786 L279.193588,897.350487 L278.370295,899.568336 L276.169248,897.367289 L278.538314,896.455786 L278.538314,896.455786 Z M477.749915,916.49624 C480.202991,916.49624 480.99268,915.723353 482.567857,914.887459 C482.227619,910.821401 480.963276,909.758682 480.963276,906.856156 L480.963276,904.445084 C480.963276,902.386853 481.156498,902.504466 481.765567,901.231723 C481.202703,900.097596 480.963276,899.900173 480.963276,898.018362 L480.963276,896.409581 C478.342182,894.657984 476.28395,889.987059 473.734263,889.987059 L472.927773,889.987059 C471.466008,889.987059 463.959764,892.84338 463.287689,893.20042 L463.287689,896.409581 C463.287689,899.60614 466.50105,898.845855 466.50105,902.034013 L466.50105,905.247375 C470.94515,904.062842 468.210642,902.62628 468.618088,897.799937 L469.840426,901.370339 L473.070589,898.782848 L473.734263,902.034013 C472.46152,902.496065 469.714411,904.684511 469.714411,906.049665 C469.714411,907.566035 474.183714,912.253763 474.532353,916.49624 L477.749915,916.49624 L477.749915,916.49624 Z M530.768277,898.820652 C529.919781,898.081369 527.962361,895.880321 527.559116,898.820652 L530.768277,898.820652 L530.768277,898.820652 Z M243.976828,897.216072 L243.174537,897.216072 C240.801271,897.216072 240.406426,898.577025 239.961176,900.429433 L250.105317,905.764033 L250.684982,905.058353 L245.585609,897.216072 L243.976828,897.216072 L243.976828,897.216072 Z M158.333397,901.055303 C156.04414,902.344848 158.228385,902.034013 156.413781,902.034013 C156.30877,902.034013 154.821802,901.244325 154.779798,901.223322 L155.77531,897.258076 L158.333397,901.055303 L158.333397,901.055303 Z M170.871807,900.429433 L169.431045,902.197832 L169.267227,900.429433 L170.871807,900.429433 L170.871807,900.429433 Z M490.60336,901.231723 L485.756015,902.764896 C484.810909,901.391341 484.176638,901.429145 484.176638,899.627143 C484.176638,896.237362 485.424178,898.018362 487.389999,898.018362 L488.994579,898.018362 C491.292238,898.018362 490.464745,898.27039 491.405651,899.627143 C493.913333,898.589626 497.025883,902.231436 497.832373,905.247375 L493.010231,905.247375 C490.716773,905.247375 491.544266,905.503604 490.60336,906.856156 L496.227793,906.856156 C498.105404,906.856156 498.302826,906.616729 499.441154,906.049665 L502.830935,909.086606 L504.217091,908.393528 L505.212603,910.817201 L508.274747,910.871807 C510.614411,914.064166 514.294024,915.383114 517.914832,917.29853 L517.914832,924.527543 C517.914832,926.379951 517.356169,926.938614 515.50376,926.938614 C514.936697,926.938614 506.829785,921.956854 505.863676,920.511891 C502.301676,920.432082 502.137857,920.76812 501.848025,917.29853 C503.927259,916.458435 504.842962,914.328796 505.061386,911.674097 L501.033133,913.253475 L501.045735,916.49624 C496.126981,919.78941 498.235619,918.604877 493.010231,919.709601 L491.447655,918.835903 C489.288613,919.953228 492.065125,919.709601 488.994579,919.709601 C486.747327,919.709601 487.453006,917.369938 484.176638,916.49624 L484.176638,910.871807 C484.176638,908.456536 482.282225,904.445084 484.978928,904.445084 C486.449093,904.445084 485.915633,906.049665 487.389999,906.049665 C489.242407,906.049665 489.935485,902.617879 490.60336,901.231723 L490.60336,901.231723 Z M546.835084,903.642794 C545.566541,903.033726 545.679954,902.840504 543.621722,902.840504 L541.210651,902.840504 C539.33304,902.840504 539.135618,903.079931 537.99729,903.642794 L530.768277,901.231723 C531.759588,899.748956 533.10794,898.018362 535.590419,898.018362 C538.904592,898.018362 540.643587,899.627143 545.230503,899.627143 L545.230503,901.231723 L547.641574,901.231723 C550.615509,901.231723 551.266582,902.017211 552.459516,903.642794 C550.17866,903.109334 551.085962,902.840504 549.246155,902.840504 C547.69618,902.840504 547.813794,903.092532 546.835084,903.642794 L546.835084,903.642794 Z M227.107731,901.231723 L227.107731,902.034013 C231.341807,902.034013 230.988967,906.856156 235.143234,906.856156 C237.310678,906.856156 237.356883,906.469712 239.503325,905.789236 L236.747815,902.034013 L235.151635,901.962605 L227.107731,901.231723 L227.107731,901.231723 Z M520.21669,899.480126 L518.906143,906.89816 L520.603134,909.893097 C517.196551,909.233623 516.847912,906.751144 517.914832,904.445084 L516.490871,902.277641 L520.21669,899.480126 L520.21669,899.480126 Z M159.790961,900.471438 L162.038214,900.429433 L165.226372,900.769671 C165.100358,902.218834 164.550096,906.856156 162.840504,906.856156 C161.622367,906.856156 161.933202,905.276778 158.795449,904.440884 L159.790961,900.471438 L159.790961,900.471438 Z M509.081238,907.658446 C504.112079,907.549234 501.461581,905.058353 499.441154,902.034013 C504.452318,902.147426 505.603247,904.445084 507.472457,904.445084 L513.89918,904.445084 L515.562567,910.859206 L509.081238,907.658446 L509.081238,907.658446 Z M275.308151,905.247375 L275.971825,901.55516 L272.90128,899.627143 C271.91837,900.177405 272.035983,900.429433 270.490209,900.429433 L268.881428,900.429433 C266.453555,900.429433 266.659378,901.374539 266.470357,903.642794 C263.542628,904.424082 262.026257,906.856156 260.043634,906.856156 L256.027983,906.856156 L254.49061,906.814151 L253.616912,905.247375 L251.205841,905.247375 C251.701496,911.16164 260.463682,911.07343 263.349406,914.526218 L273.858988,917.147313 L269.683718,912.480588 L265.668067,912.480588 L265.668067,910.069517 C268.89823,909.800687 269.750926,908.813576 270.519612,905.953054 L273.69937,906.856156 L273.69937,905.247375 L275.308151,905.247375 L275.308151,905.247375 Z M184.531743,906.049665 C183.284203,904.923938 183.183392,905.213771 182.927163,902.840504 L186.942814,902.840504 C190.769445,902.840504 189.467298,903.642794 192.567247,903.642794 L192.567247,904.445084 L184.531743,906.049665 L184.531743,906.049665 Z M166.058066,902.840504 L169.977107,904.659309 L175.660346,903.436971 L178.105021,903.642794 C180.398478,903.642794 179.575186,903.894823 180.516092,905.247375 L175.664546,906.751144 L172.514192,905.953054 C170.548371,906.98217 171.43467,906.856156 168.464937,906.856156 L166.058066,906.856156 L166.058066,902.840504 L166.058066,902.840504 Z M216.665357,910.069517 C213.956052,910.069517 213.922448,906.851955 212.674908,903.974632 L217.480248,904.214059 L223.058475,903.436971 C225.188115,903.302556 227.132934,905.688424 227.910021,906.856156 L226.091216,910.775196 L219.798909,909.573861 C218.605975,909.876295 218.723588,910.069517 216.665357,910.069517 L216.665357,910.069517 Z M204.614201,906.856156 L201.988906,906.511717 L204.437782,904.970144 L204.614201,906.856156 L204.614201,906.856156 Z M240.864278,908.431333 L239.864565,905.280978 C244.039835,907.204795 244.602698,907.007373 247.190189,910.871807 L240.864278,908.431333 L240.864278,908.431333 Z M275.308151,906.856156 L276.916932,906.856156 L276.916932,905.247375 L275.308151,905.247375 L275.308151,906.856156 Z M207.516728,905.007948 C208.940688,907.229998 208.629853,905.045752 208.629853,906.856156 C208.629853,908.49854 206.974867,908.334722 205.059451,908.187705 L207.516728,905.007948 L207.516728,905.007948 Z M465.912984,908.422932 C470.302478,909.531856 470.344482,911.980732 472.125483,915.693949 L469.69761,916.450034 L464.110981,914.820251 L464.089979,913.282878 L466.68167,912.442784 L465.912984,908.422932 L465.912984,908.422932 Z M524.341554,908.464937 L525.950335,908.464937 L525.950335,910.069517 L524.341554,908.464937 L524.341554,908.464937 Z M172.480588,910.069517 L174.891659,910.069517 L174.891659,908.464937 L172.480588,908.464937 L172.480588,910.069517 Z M188.547395,912.480588 C188.845628,908.914387 189.887345,908.750569 193.369537,908.464937 L193.369537,910.069517 L188.547395,912.480588 L188.547395,912.480588 Z M456.058676,912.480588 C456.89877,909.338635 458.020296,909.972906 460.876618,908.464937 L459.977717,911.644694 C463.984967,910.846604 461.716712,910.161927 462.485399,912.480588 L459.20903,912.161352 L456.058676,912.480588 L456.058676,912.480588 Z M185.976706,909.909899 C187.35026,913.001447 181.608214,922.120672 177.30273,922.120672 L175.693949,922.120672 C173.001447,922.120672 174.076768,924.405729 168.464937,924.527543 L170.695387,922.641531 C170.871807,917.626167 172.077343,917.890796 174.089369,914.887459 L177.30273,914.887459 L181.528405,912.05214 L184.372125,911.514479 L185.976706,909.909899 L185.976706,909.909899 Z M272.094789,908.464937 C275.467769,908.380927 276.916932,906.839354 276.916932,910.069517 L276.916932,917.29853 C272.750063,915.79056 275.350156,912.972043 270.490209,911.674097 L272.094789,908.464937 L272.094789,908.464937 Z M249.441642,911.837916 L251.205841,911.674097 L251.046223,913.442496 L249.441642,911.837916 L249.441642,911.837916 Z M167.662646,913.282878 L171.678298,913.282878 L171.678298,911.674097 L167.662646,911.674097 L167.662646,913.282878 Z M154.809201,914.887459 C150.562523,914.887459 149.075556,918.105021 146.773697,918.105021 L145.971407,918.105021 C143.833367,918.105021 141.665923,920.192655 141.153465,922.120672 L143.564537,922.120672 C148.092646,922.120672 152.171304,920.545495 155.939128,919.230747 C156.203758,919.138337 165.978257,913.350086 166.058066,913.282878 L161.235924,913.282878 C157.724329,913.282878 158.316595,914.887459 154.809201,914.887459 L154.809201,914.887459 Z M169.284029,915.79056 L168.31372,918.046214 C166.18408,918.63428 167.091382,918.90311 165.251575,918.90311 C163.819214,918.90311 163.932627,917.701775 163.680599,916.702063 L169.284029,915.79056 L169.284029,915.79056 Z M186.942814,914.085168 L188.547395,914.085168 C188.23656,917.819388 189.408492,915.488126 186.942814,917.29853 L186.942814,914.085168 L186.942814,914.085168 Z M127.493529,918.90311 C123.876923,918.823301 123.427472,918.621679 121.869097,916.49624 L127.493529,916.49624 L127.493529,918.90311 L127.493529,918.90311 Z M480.744852,916.840678 L483.370147,916.49624 L483.193727,918.382252 L480.744852,916.840678 L480.744852,916.840678 Z M227.107731,922.922962 L225.49895,922.922962 L224.058188,921.154563 L223.894369,918.105021 L222.289789,918.105021 L222.289789,914.085168 L230.321092,914.085168 L230.321092,917.29853 C230.321092,918.592275 228.023434,921.192368 227.107731,922.922962 L227.107731,922.922962 Z M378.135714,921.314181 L378.051704,917.428744 L374.136864,914.933664 L371.860208,915.635143 L370.906701,913.282878 L363.673487,913.282878 C361.632058,913.282878 359.972871,916.013185 358.053255,917.29853 C359.241989,919.869219 359.292395,920.885733 356.087434,919.87762 L358.053255,923.725253 C359.031965,923.174991 358.910152,922.922962 360.460126,922.922962 L361.266617,922.922962 C361.632058,922.922962 366.571813,925.598663 367.642934,926.098519 L370.448849,922.381101 L370.436248,921.549408 L376.526933,925.334033 L376.573138,922.18788 L378.135714,921.314181 L378.135714,921.314181 Z M389.380378,918.90311 L389.334173,916.31982 L386.133413,917.159914 C387.97742,919.768408 385.650359,918.596476 389.380378,918.90311 L389.380378,918.90311 Z M450.434243,921.314181 C451.333145,917.958004 450.795484,919.61299 453.647605,918.105021 L457.667457,918.105021 L455.941063,920.41528 L450.434243,921.314181 L450.434243,921.314181 Z M222.289789,918.105021 L219.89552,914.131374 L217.467647,914.887459 L217.467647,918.105021 C217.467647,920.671509 220.739815,923.179191 223.163487,923.712651 L222.289789,918.105021 L222.289789,918.105021 Z M256.830273,919.709601 L255.225693,919.709601 L255.225693,918.105021 L256.830273,919.709601 L256.830273,919.709601 Z M378.135714,921.314181 C379.584877,920.343872 379.547072,919.709601 381.349075,919.709601 C387.687588,919.709601 387.62038,922.922962 390.186869,922.922962 L393.40023,922.922962 L393.425433,927.79131 L399.020462,925.334033 L399.020462,929.349685 L400.629243,929.349685 C400.629243,925.283628 401.40633,924.85938 397.415882,924.527543 C398.516405,920.402679 401.822177,921.12096 403.036114,918.105021 L406.253675,918.105021 C410.56336,918.105021 410.050902,915.693949 412.680398,915.693949 C415.599726,915.693949 415.494715,914.740442 417.964592,914.269989 L421.551796,920.654707 L418.30063,921.314181 L418.30063,924.527543 C415.137674,926.850404 414.364787,928.400378 412.43257,932.315218 C410.815388,935.604188 407.770046,937.922849 407.055966,940.594349 C403.510767,940.888382 403.54017,942.20313 401.431533,942.20313 C398.82304,942.20313 400.826665,941.505852 397.415882,940.594349 L397.415882,942.20313 L399.188481,942.270338 L397.415882,947.021072 L399.020462,947.021072 C398.360988,949.503551 397.512492,951.175339 395.00481,951.843214 L395.00481,953.451995 C397.730917,953.149561 398.234974,952.406078 399.020462,950.234433 L400.629243,950.234433 C400.301606,954.170276 394.740181,959.488074 391.791449,958.269937 L391.627631,961.05485 L384.713653,958.21113 L383.79375,955.909272 L387.775798,953.451995 L387.775798,955.056576 L386.007399,955.216194 L387.70859,956.623352 L390.186869,951.843214 L393.40023,951.843214 L393.354025,950.062214 L390.186869,951.040924 C389.783623,950.322643 389.66181,949.432143 388.578088,949.432143 C387.498566,949.432143 385.746969,952.393476 385.364726,953.451995 C379.887311,953.325981 382.857045,951.843214 379.744495,951.843214 L378.135714,951.843214 C376.333711,951.843214 376.371515,951.204743 374.922352,950.234433 C373.342975,951.070327 372.553286,951.843214 370.10021,951.843214 L366.046754,952.124646 L350.820042,950.234433 L350.820042,947.827563 L349.215462,947.827563 L349.165056,950.129422 L340.902727,953.275575 L342.755135,950.137823 L339.575378,951.040924 C339.466165,946.227183 337.966597,947.529329 337.966597,943.811911 L337.966597,941.39664 C337.966597,939.338408 338.159818,939.460222 338.773087,938.187479 C338.210224,937.053351 337.966597,936.851729 337.966597,934.974117 C337.966597,932.621853 344.246303,927.308255 346.035704,926.073317 L348.413171,927.740904 C349.391881,927.190642 349.270068,926.938614 350.820042,926.938614 L353.231113,926.938614 C355.293545,926.938614 355.171731,927.131836 356.444474,927.740904 C357.091347,927.295654 358.427097,926.136324 358.855546,926.136324 C360.502131,926.136324 361.657261,928.614602 362.068907,930.151975 L363.673487,930.151975 L363.673487,927.740904 C368.445224,928.139949 365.231863,928.568397 368.49563,930.958466 L368.49563,928.547395 L372.511281,928.547395 C370.738682,924.250312 375.401206,926.858805 378.719579,927.283053 L381.197858,928.488588 L382.151365,926.136324 L377.602254,926.174128 L378.135714,921.314181 L378.135714,921.314181 Z M439.164376,919.587787 C438.265475,920.969743 439.042562,921.314181 436.778508,921.314181 L434.367437,921.314181 L434.39684,920.633705 L439.164376,919.587787 L439.164376,919.587787 Z M134.726743,922.922962 L129.9046,921.314181 C130.001211,920.5875 130.723693,919.709601 131.509181,919.709601 C132.891136,919.709601 134.264691,921.650219 134.726743,922.922962 L134.726743,922.922962 Z M183.729453,920.511891 L185.334033,920.511891 L183.729453,922.120672 L183.729453,920.511891 L183.729453,920.511891 Z M209.436344,914.085168 L209.436344,921.314181 C214.136672,921.704825 213.615814,923.292604 216.530941,925.195418 L217.627265,924.367925 L215.858866,922.922962 L215.858866,919.709601 C212.51949,917.260726 214.329894,915.227697 209.436344,914.085168 L209.436344,914.085168 Z M347.606681,925.334033 C348.429973,922.250887 350.08916,921.246974 353.231113,920.511891 L354.18462,922.864156 C351.487917,923.603439 350.992261,924.544345 347.606681,925.334033 L347.606681,925.334033 Z M472.125483,924.527543 L465.69876,922.922962 C466.022196,920.5917 467.441956,922.120672 468.912121,922.120672 L472.125483,922.120672 L472.125483,924.527543 L472.125483,924.527543 Z M480.963276,922.922962 L480.963276,921.314181 C483.378548,921.877045 487.011957,922.922962 489.79687,922.922962 C492.884217,922.922962 493.497486,923.233797 493.816722,926.136324 L489.79687,926.136324 C487.637827,926.136324 485.575395,923.023774 480.963276,922.922962 L480.963276,922.922962 Z M505.863676,926.938614 C500.860914,926.938614 499.029508,925.107208 497.030083,922.120672 L503.431603,923.061578 L508.493172,926.598376 L505.863676,926.938614 L505.863676,926.938614 Z M333.148655,927.740904 L335.076672,924.670359 L337.164306,924.527543 C339.461965,924.527543 338.634472,924.275514 339.575378,922.922962 L344.368116,922.582724 L344.699954,923.326208 L338.294234,928.173553 C337.428936,934.218032 335.190084,928.833027 333.950945,932.563046 L335.559726,932.563046 L333.325075,934.453259 L333.148655,932.563046 L331.539874,932.563046 L331.539874,930.958466 L333.148655,930.958466 L333.148655,927.740904 L333.148655,927.740904 Z M178.105021,925.334033 C172.32097,925.334033 170.460161,928.102145 169.267227,932.563046 L166.856156,932.563046 L166.856156,934.167627 C169.317632,933.961804 179.680198,927.656895 180.516092,924.527543 C179.533181,925.082005 179.654995,925.334033 178.105021,925.334033 L178.105021,925.334033 Z M203.005421,922.120672 L204.614201,922.120672 L206.399402,915.752756 L207.827563,915.693949 L207.827563,920.511891 C207.827563,925.74988 213.729226,922.208882 214.254285,928.547395 L219.038623,927.551883 L217.354234,932.512641 L214.254285,932.563046 L214.254285,929.349685 L211.045125,930.966867 L207.873768,929.979756 L207.239497,926.094319 L204.710812,927.858517 C205.202268,930.517416 206.147374,930.118371 203.005421,930.958466 L203.005421,922.120672 L203.005421,922.120672 Z M420.711701,926.136324 L423.122772,926.136324 L423.122772,924.527543 L420.711701,924.527543 L420.711701,926.136324 Z M442.058502,927.157038 L440.512728,924.708163 L442.058502,927.157038 L442.058502,927.157038 Z M484.978928,929.349685 L486.587709,929.349685 C489.645653,929.349685 491.611474,933.495551 493.413476,934.570872 L496.227793,932.563046 C495.786743,933.512353 494.745026,935.776408 497.030083,935.776408 C500.65089,935.776408 502.679718,933.860992 503.423202,931.130685 L497.735762,930.034362 L495.572519,931.701949 L494.619012,929.349685 L490.60336,929.349685 C488.213292,929.349685 480.480222,923.418618 474.141709,923.065778 L475.889106,927.833314 C480.656642,927.841715 480.614637,929.349685 484.978928,929.349685 L484.978928,929.349685 Z M166.058066,929.349685 C166.058066,925.787684 165.873245,925.615465 169.267227,925.334033 L167.452623,929.236272 L166.058066,929.349685 L166.058066,929.349685 Z M276.916932,926.938614 C276.916932,927.047826 276.123042,928.530593 276.110441,928.547395 C272.779466,927.770307 272.388823,928.072741 272.094789,924.527543 C273.934596,924.68296 276.916932,925.271026 276.916932,926.938614 L276.916932,926.938614 Z M156.413781,931.756556 C157.699126,929.84114 161.668572,926.438758 164.449285,926.136324 L161.668572,932.382426 L158.824853,932.563046 C157.274878,932.563046 157.392491,932.311018 156.413781,931.756556 L156.413781,931.756556 Z M439.097169,925.195418 L439.189579,927.740904 L435.757793,927.413267 L439.097169,925.195418 L439.097169,925.195418 Z M431.154075,931.756556 L433.41393,930.895459 L434.367437,928.547395 C434.354835,928.534793 432.872069,927.740904 432.762856,927.740904 C430.952453,927.740904 431.154075,929.954553 431.154075,931.756556 L431.154075,931.756556 Z M243.174537,927.740904 L244.783318,927.740904 C244.468283,931.479324 244.594297,931.428919 241.569957,931.756556 L241.569957,929.349685 L243.174537,929.349685 L243.174537,927.740904 L243.174537,927.740904 Z M413.482688,935.776408 C415.99037,934.096219 418.20822,931.890971 418.30063,927.740904 L416.69605,927.740904 C416.410418,931.168489 416.259201,931.823763 413.482688,932.563046 L413.482688,935.776408 L413.482688,935.776408 Z M436.035024,929.366487 C437.534593,929.4799 439.189579,929.311881 439.189579,930.958466 C439.189579,932.432832 437.345572,932.999895 435.976218,933.365337 L435.976218,935.776408 L434.136411,935.705 L436.035024,929.366487 L436.035024,929.366487 Z M252.814621,932.563046 C250.533765,933.092306 251.441067,933.365337 249.60126,933.365337 C247.73625,933.365337 247.412814,932.159801 247.190189,930.151975 L252.781018,931.130685 L252.814621,932.563046 L252.814621,932.563046 Z M422.320482,934.974117 L423.122772,937.380988 C426.403341,936.50729 426.819188,934.810299 427.138424,930.958466 C423.336996,931.97078 425.987494,932.516841 422.320482,934.974117 L422.320482,934.974117 Z M431.154075,934.167627 L431.154075,932.563046 L429.385677,932.722664 L431.154075,934.167627 L431.154075,934.167627 Z M139.544684,937.380988 C137.293231,934.310443 137.427646,937.267575 136.331323,932.563046 L141.153465,932.563046 C143.031077,932.563046 143.228499,932.323619 144.362626,931.756556 L150.566724,934.696886 L150.793549,935.776408 C147.382766,936.68791 149.386391,937.380988 146.773697,937.380988 L144.362626,937.380988 C142.485015,937.380988 142.287593,937.141561 141.153465,936.578698 L139.544684,937.380988 L139.544684,937.380988 Z M309.046345,932.563046 C308.399472,932.113596 307.063722,930.958466 306.639474,930.958466 C305.165108,930.958466 305.702769,932.563046 304.228403,932.563046 C301.157858,932.563046 303.93857,932.806674 301.817332,931.756556 L297.17581,933.886195 L299.431463,935.637792 L305.832983,936.578698 C308.197849,936.977743 307.084724,936.5997 308.244054,938.187479 C313.179609,938.296691 311.738847,940.287715 313.868487,937.380988 L310.814743,937.22137 L309.046345,935.776408 L309.046345,932.563046 L309.046345,932.563046 Z M318.472205,933.709775 L321.0975,933.365337 L320.92108,935.255549 L318.472205,933.709775 L318.472205,933.709775 Z M480.156786,932.563046 L487.389999,932.563046 L490.15811,935.499176 L486.549905,935.112733 L485.020933,935.843615 L480.303802,933.776983 L480.156786,932.563046 L480.156786,932.563046 Z M154.00271,935.776408 L157.216072,935.776408 L157.216072,934.167627 L154.00271,934.167627 L154.00271,935.776408 Z M246.387899,935.776408 L247.992479,935.776408 L247.992479,934.167627 L246.387899,934.167627 L246.387899,935.776408 Z M317.081848,937.380988 C314.305336,936.641705 314.61197,936.948339 313.868487,934.167627 C316.077935,934.969917 315.704093,935.326957 317.081848,937.380988 L317.081848,937.380988 Z M502.650315,937.380988 C502.650315,937.04075 505.426827,932.588249 505.863676,931.756556 L511.50071,932.037987 C512.395411,932.365624 514.70147,933.646768 514.70147,934.974117 C514.70147,935.952827 513.038083,937.380988 511.488109,937.380988 L509.883528,937.380988 C507.090214,937.380988 508.65699,938.989769 505.863676,938.989769 L505.061386,938.989769 C503.746638,938.989769 502.650315,938.506715 502.650315,937.380988 L502.650315,937.380988 Z M522.094301,935.612589 L519.452204,935.734403 L520.39311,934.209631 L522.094301,935.612589 L522.094301,935.612589 Z M525.950335,935.776408 L526.819833,934.209631 L528.521024,935.612589 L525.950335,935.776408 L525.950335,935.776408 Z M324.163845,935.835214 L325.071147,938.204281 L322.689479,938.943564 L320.471629,937.099556 C321.282321,941.081604 329.406034,943.811911 333.148655,943.811911 C334.391995,943.811911 334.757436,940.569147 334.757436,938.989769 C334.757436,938.011059 333.094049,936.578698 331.539874,936.578698 C328.397921,936.578698 331.451664,937.792634 326.721932,938.187479 L326.721932,935.776408 L324.163845,935.835214 L324.163845,935.835214 Z M413.482688,935.776408 L413.482688,937.380988 L411.873907,937.380988 L412.545983,936.444283 L413.482688,935.776408 L413.482688,935.776408 Z M431.154075,934.167627 L432.611639,934.226433 L433.695361,936.696311 L426.336134,943.811911 C426.672171,939.775257 428.541382,937.528005 431.154075,935.776408 L431.154075,934.167627 L431.154075,934.167627 Z M286.557016,938.989769 C285.427089,938.989769 284.948235,937.893446 284.948235,936.578698 L284.948235,934.167627 C286.767039,934.654882 288.161596,934.940514 288.161596,937.380988 C288.161596,938.095068 287.271096,938.989769 286.557016,938.989769 L286.557016,938.989769 Z M411.873907,937.380988 L410.613766,940.010484 L411.873907,937.380988 L411.873907,937.380988 Z M301.388884,940.980793 L305.559953,945.660119 L306.668877,941.405041 C304.518235,940.350722 307.298948,940.594349 304.228403,940.594349 L301.388884,940.980793 L301.388884,940.980793 Z M307.441764,941.39664 C309.243767,941.820887 309.289972,942.20313 311.457416,942.20313 C315.85531,942.20313 317.514497,945.261074 320.757262,946.218782 L321.059696,949.293528 L324.310861,948.629853 C326.868949,949.982405 329.1036,952.208655 331.065221,952.498488 L329.246416,947.583935 L334.757436,950.234433 L334.757436,955.858866 C328.221501,959.315855 324.155444,960.496187 317.892539,964.658855 L313.066197,963.894369 C312.003477,959.328456 307.441764,954.623927 307.441764,950.234433 L307.441764,948.629853 C307.441764,945.559308 307.689592,948.33582 306.622672,946.176777 L309.046345,945.416492 L309.046345,943.811911 L307.441764,943.811911 L307.441764,941.39664 L307.441764,941.39664 Z M421.513991,942.20313 L423.122772,943.811911 L421.513991,943.811911 L421.513991,942.20313 L421.513991,942.20313 Z M287.84236,943.215444 L291.383358,948.621452 C292.857724,947.638542 294.588319,946.29019 294.588319,943.811911 C294.588319,941.157213 290.677679,942.950814 287.84236,943.215444 L287.84236,943.215444 Z M406.253675,943.811911 C405.993246,946.937063 404.51888,949.096105 401.431533,949.432143 L401.431533,946.218782 L403.842604,946.218782 C402.939503,944.030336 403.031913,944.084942 406.253675,943.811911 L406.253675,943.811911 Z M417.641156,946.256586 C418.048602,947.201692 418.30063,947.075678 418.30063,948.629853 C418.30063,949.343933 417.41013,950.234433 416.69605,950.234433 C415.608127,950.234433 416.246599,949.369136 413.381877,948.659256 L414.251375,951.750804 L408.660546,953.451995 C410.567561,950.599875 414.906648,943.912723 418.47705,943.051626 L417.641156,946.256586 L417.641156,946.256586 Z M421.513991,947.021072 L423.122772,947.021072 L423.122772,945.416492 L421.513991,945.416492 L421.513991,947.021072 Z M297.80168,951.843214 L295.554427,952.485887 L293.786029,951.040924 C294.546314,949.902596 297.209414,945.416492 298.60397,945.416492 C300.250556,945.416492 300.082537,947.071478 300.212751,948.629853 C297.71347,949.297728 297.80168,948.747466 297.80168,951.843214 L297.80168,951.843214 Z M278.521512,958.269937 L278.521512,951.040924 L278.744137,949.692572 L281.734874,946.218782 C284.923032,947.071478 285.910143,949.910997 287.317301,952.599299 L280.130293,958.269937 L278.521512,958.269937 L278.521512,958.269937 Z M229.518802,953.451995 L233.534453,952.645505 C233.14801,956.173901 228.582097,959.857716 225.125108,960.407977 L229.518802,955.056576 L229.518802,953.451995 L229.518802,953.451995 Z M378.135714,953.451995 L382.151365,956.665357 C378.774185,955.762255 379.538671,955.275 378.135714,953.451995 L378.135714,953.451995 Z M346.80439,960.681008 L346.0021,959.072227 L342.88535,959.042824 L341.986449,955.858866 C343.292796,955.232995 349.387681,952.498488 350.828443,952.599299 L361.266617,953.451995 C363.749096,953.704024 366.891049,953.573809 366.891049,955.056576 C366.891049,957.089604 350.35379,958.975616 346.80439,960.681008 L346.80439,960.681008 Z M288.161596,956.665357 L289.770377,956.665357 L289.770377,955.056576 L288.161596,955.056576 L288.161596,956.665357 Z M298.60397,955.056576 C302.401197,955.140585 301.758525,954.241684 302.615421,957.49285 L298.60397,956.665357 L298.60397,955.056576 L298.60397,955.056576 Z M360.460126,961.483298 L360.460126,959.874517 C357.040942,959.950126 356.549486,959.782107 355.642184,962.285589 C353.361328,961.756329 354.26863,961.483298 352.428823,961.483298 C349.790926,961.483298 345.38043,964.297615 346.0021,967.910021 L347.60248,979.158886 C348.299759,983.182938 349.123051,982.229431 349.215462,986.387899 L350.778037,987.257397 C350.946056,992.80202 354.411446,994.625025 355.642184,999.241344 C360.174494,999.140533 359.368003,997.561155 363.980122,996.330417 C369.314722,994.906457 367.798351,996.086789 370.108611,992.016532 C371.120925,990.231331 378.135714,979.646141 378.135714,978.352395 L378.135714,976.743614 C378.135714,976.025334 389.111548,964.982292 390.186869,964.69666 C389.258564,961.23127 384.541434,958.269937 380.542584,958.269937 C377.518244,958.269937 379.026214,957.740677 375.724642,957.467647 L371.96942,960.223157 L371.708991,958.269937 L368.525033,959.168838 C368.205797,962.541817 368.041979,962.20998 364.479978,962.285589 L365.429285,959.933324 L367.689139,959.874517 C367.264891,959.261248 367.260691,958.269937 366.084558,958.269937 C365.74432,958.269937 361.29182,961.046449 360.460126,961.483298 L360.460126,961.483298 Z M318.686429,971.123382 C318.686429,974.21493 328.204699,993.150659 329.935294,994.419202 C330.069709,1000.40067 333.5477,1001.14836 334.757436,1005.66807 L340.407071,1002.49251 L344.359716,1003.43762 C345.317423,1004.51714 344.544536,1004.86158 346.80439,1004.86158 C349.417084,1004.86158 347.413459,1004.1685 350.820042,1003.257 L348.345964,998.476858 L345.19561,998.439054 L343.754848,996.670655 L341.238765,997.78378 C341.713418,995.355907 341.986449,996.259009 341.986449,994.419202 C341.986449,993.990754 340.827118,992.659204 340.377668,992.012331 C341.318574,990.231331 342.788739,988.08909 342.788739,985.581408 L342.788739,983.174537 L340.436474,982.22103 L341.726019,979.81416 C341.427786,978.83545 341.436187,979.154685 341.179958,977.550105 L339.545974,967.111931 C339.054519,963.856565 337.953995,961.655518 337.164306,958.269937 C332.455577,958.374949 318.686429,966.30124 318.686429,970.321092 L318.686429,971.123382 L318.686429,971.123382 Z M346.0021,996.830273 L347.606681,996.830273 L347.606681,995.221492 L346.0021,995.221492 L346.0021,996.830273 Z M349.215462,1008.07494 L351.626533,1005.66807 C350.210974,1008.33537 351.790351,1007.80611 349.215462,1008.07494 L349.215462,1008.07494 Z M341.179958,1004.86158 C343.561626,1004.86158 348.413171,1007.19284 348.413171,1008.88143 C348.413171,1010.17097 343.502819,1013.50615 341.558001,1013.42214 L337.966597,1009.68372 C338.147217,1007.54568 339.268743,1004.86158 341.179958,1004.86158 L341.179958,1004.86158 Z M352.084384,1015.89202 L352.428823,1018.51731 L350.53861,1018.34089 L352.084384,1015.89202 L352.084384,1015.89202 Z M354.839894,1034.58412 C353.02529,1034.58412 355.209536,1034.89495 353.231113,1033.78183 C353.995599,1030.50546 355.671588,1028.2078 358.855546,1027.35511 L358.855546,1029.76618 C358.855546,1031.50097 355.629583,1034.58412 354.839894,1034.58412 L354.839894,1034.58412 Z" id="tree" fill="#00C7B7" mask="url(#mask-2)"></path>
                    <path d="M-53.5321815,1208.29136 C-37.0016517,1208.29136 2.17929777,1196.13451 51.9142605,1192.6937 C64.5415749,1191.8201 90.0118653,1211.08182 101.700232,1208.29136 C124.274517,1202.90203 127.495452,1178.74888 148.007062,1169.76433 C160.022524,1164.50128 175.244507,1143.64608 185.523268,1138.24713 C237.660859,1110.8617 262.791993,1099.69617 262.791993,1099.69617 C262.791993,1099.69617 323.427114,1055.50433 371.063949,1110.20538 C418.700785,1164.90644 409.976711,1162.19695 409.976711,1162.19695 L418.071456,1165.32561 C418.071456,1165.32561 428.502585,1161.36758 433.382132,1161.78227 C438.26168,1162.19695 452.692419,1175.3016 452.692419,1175.3016 C452.692419,1175.3016 475.487615,1167.72381 483.283429,1174.37784 C491.079242,1181.03187 494.134859,1186.4396 494.134859,1186.4396 C494.134859,1186.4396 505.078441,1182.6042 510.990763,1188.49953 C516.903084,1194.39487 539.584776,1217.97798 555.078632,1221.56965 C570.572488,1225.16132 588.785944,1243.9423 592.911421,1259.73958 C597.036897,1275.53686 612.897113,1279.09931 621.282922,1289.20679 C629.668731,1299.31426 631.364548,1330.28849 631.364548,1330.28849 L226.499562,1399.92893 C226.499562,1399.92893 48.272325,1436.6504 -24.3586924,1389.4456 C-99.1269247,1340.85176 -68.1578684,1208.29136 -53.5321815,1208.29136 Z" id="Path-4" fill="#00C7B7" mask="url(#mask-2)"></path>
                </g>
            </g>
        </g>
    </g>
</svg>