<?xml version="1.0" encoding="UTF-8"?>
<svg width="1440px" height="1328px" viewBox="0 0 1440 1328" version="1.1" xmlns="http://www.w3.org/2000/svg" xmlns:xlink="http://www.w3.org/1999/xlink">
    <!-- Generator: Sketch 40.3 (33839) - http://www.bohemiancoding.com/sketch -->
    <title>layer8</title>
    <desc>Created with Sketch.</desc>
    <defs>
        <rect id="path-1" x="0" y="0.0488871606" width="1440" height="1327.95111"></rect>
    </defs>
    <g id="404" stroke="none" stroke-width="1" fill="none" fill-rule="evenodd">
        <g id="404-v3" transform="translate(0.000000, -73.000000)">
            <g id="parallax-bg" transform="translate(0.000000, 73.000000)">
                <g id="layer8">
                    <mask id="mask-2" fill="white">
                        <use xlink:href="#path-1"></use>
                    </mask>
                    <use id="Rectangle-3-Copy-3" fill-opacity="0.00999999978" fill="#FFFFFF" xlink:href="#path-1"></use>
                    <path d="M283.791964,416.058628 L322.840219,514.449861 L328.272928,507.293817 L335.691676,511.167818 L342.245254,498.600081 L347.050977,526.134915 L367.230112,573.246417 L373.016595,558.013114 L379.212896,550.163532 L385.500267,560.948388 L393.913786,553.967479 L401.766871,561.666445 L411.549951,571.712228 L417.791787,558.881787 L425.4242,600.72871 L436.562831,628.862508 L443.536734,670.818015 L448.769789,696.153145 L454.727905,702.902874 C454.727905,702.902874 451.193667,721.814027 459.183357,727.667061 C467.173047,733.520096 478.308175,727.435882 478.308175,727.435882 L493.849716,740.823255 C493.849716,740.823255 499.086274,777.899481 512.270489,786.533671 C525.454704,795.167861 528.365459,780.901307 528.365459,780.901307 L543.101376,803.591888 L548.131274,817.424105 L571.757079,833.329929 L590.612188,840.475465 L602.006516,834.412267 L608.272871,849.144682 L624.042089,871.460472 L651.342241,885.842616 L660.641947,895.366495 L655.335335,909.489437 L632.077315,929.710604 L553.476415,995.015202 L683.066321,1143.1765 L887.813959,1096.80407 L919.124718,956.271684 L852.398019,885.888151 L819.115231,880.777691 L778.942606,873.39397 L769.22958,865.418291 L737.757696,860.171225 L720.71349,847.680548 L754.52869,830.131951 L782.340238,818.478422 L794.606742,797.476149 L827.146954,797.665296 L853.16161,756.785122 L888.48648,714.482846 L920.767491,653.234391 L977.49044,540.362939 L1028.04161,392.226163 L1152.71362,150.486313 L1201.40045,196.059793 L1283.71539,196.059793 L1376.24968,322.450157 L1467.78093,247.358453 L1522.82446,363.910224 L1483.14222,1441.65676 C1483.14222,1441.65676 -53.57893,1399.59267 -53.57893,1392.15641 C-53.57893,1384.72014 -41.886871,329.17381 -41.886871,329.17381 L51.8831824,293.902413 L152.721916,217.664371 L212.650684,381.962074 L283.791964,416.058628 Z" id="Path-9" fill="#B2EEE9" mask="url(#mask-2)"></path>
                </g>
            </g>
        </g>
    </g>
</svg>